<?xml version="1.0" encoding="utf-8" standalone="no"?>
<!DOCTYPE svg PUBLIC "-//W3C//DTD SVG 1.1//EN"
  "http://www.w3.org/Graphics/SVG/1.1/DTD/svg11.dtd">
<!-- Created with matplotlib (https://matplotlib.org/) -->
<svg height="360pt" version="1.1" viewBox="0 0 720 360" width="720pt" xmlns="http://www.w3.org/2000/svg" xmlns:xlink="http://www.w3.org/1999/xlink">
 <defs>
  <style type="text/css">
*{stroke-linecap:butt;stroke-linejoin:round;white-space:pre;}
  </style>
 </defs>
 <g id="figure_1">
  <g id="patch_1">
   <path d="M 0 360 
L 720 360 
L 720 0 
L 0 0 
z
" style="fill:#ffffff;"/>
  </g>
  <g id="axes_1">
   <g id="patch_2">
    <path d="M 73.91 276.02 
L 700.56 276.02 
L 700.56 120.324 
L 73.91 120.324 
z
" style="fill:#ffffff;"/>
   </g>
   <g id="patch_3">
    <path clip-path="url(#pdd1dda3707)" d="M 126.680526 276.02 
L 153.065789 276.02 
L 153.065789 276.02 
L 126.680526 276.02 
z
" style="fill:#dbdbdb;stroke:#000000;stroke-linejoin:miter;stroke-width:0.2;"/>
   </g>
   <g id="patch_4">
    <path clip-path="url(#pdd1dda3707)" d="M 126.680526 276.02 
L 153.065789 276.02 
L 153.065789 276.02 
L 126.680526 276.02 
z
" style="fill:url(#h02594ca368);stroke:#000000;stroke-linejoin:miter;stroke-width:0.2;"/>
   </g>
   <g id="patch_5">
    <path clip-path="url(#pdd1dda3707)" d="M 126.680526 276.02 
L 153.065789 276.02 
L 153.065789 276.02 
L 126.680526 276.02 
z
" style="fill:#ffffff;stroke:#000000;stroke-linejoin:miter;stroke-width:0.2;"/>
   </g>
   <g id="patch_6">
    <path clip-path="url(#pdd1dda3707)" d="M 126.680526 276.02 
L 153.065789 276.02 
L 153.065789 276.02 
L 126.680526 276.02 
z
" style="fill:url(#h005271f547);stroke:#000000;stroke-linejoin:miter;stroke-width:0.2;"/>
   </g>
   <g id="matplotlib.axis_1">
    <g id="xtick_1">
     <g id="text_1">
      <!-- PSO -->
      <defs>
       <path d="M 1.59375 66.203125 
L 27.5 66.203125 
Q 41.703125 66.203125 49.203125 59.90625 
Q 54.203125 55.703125 54.203125 48 
Q 54.203125 40 48.5 34.90625 
Q 44.296875 31.09375 39.890625 29.9375 
Q 35.5 28.796875 27.09375 28.796875 
Q 24.203125 28.796875 20.203125 29.09375 
L 20.203125 11.203125 
Q 20.203125 5.5 21.84375 3.84375 
Q 23.5 2.203125 29.59375 1.90625 
L 29.59375 0 
L 1.59375 0 
L 1.59375 1.90625 
Q 7.40625 2.296875 8.703125 4 
Q 10 5.703125 10 12.203125 
L 10 55.09375 
Q 10 60.703125 8.546875 62.296875 
Q 7.09375 63.90625 1.59375 64.296875 
z
M 20.203125 58.90625 
L 20.203125 33.09375 
Q 23.59375 32.796875 26.296875 32.796875 
Q 34.40625 32.796875 38.84375 36.75 
Q 43.296875 40.703125 43.296875 47.5 
Q 43.296875 55.59375 38.6875 59.046875 
Q 34.09375 62.5 23.703125 62.5 
Q 21.59375 62.5 20.890625 61.75 
Q 20.203125 61 20.203125 58.90625 
z
" id="STIXGeneral-Regular-80"/>
       <path d="M 46.90625 46.296875 
L 44.40625 46.296875 
Q 42.703125 52.5 40.296875 55.703125 
Q 34.203125 63.5 25.796875 63.5 
Q 21.203125 63.5 18.453125 60.84375 
Q 15.703125 58.203125 15.703125 54 
Q 15.703125 52 16.703125 50.09375 
Q 17.703125 48.203125 18.84375 46.84375 
Q 20 45.5 22.890625 43.5 
Q 25.796875 41.5 27.59375 40.453125 
Q 29.40625 39.40625 33.59375 36.90625 
Q 41.703125 32.203125 45.390625 27.546875 
Q 49.09375 22.90625 49.09375 17.296875 
Q 49.09375 9 43.296875 3.796875 
Q 37.5 -1.40625 28.703125 -1.40625 
Q 22.203125 -1.40625 16.90625 0.90625 
Q 14.296875 2 12.203125 2 
Q 11 2 10.203125 1.09375 
Q 9.40625 0.203125 9.40625 -1.296875 
L 7.203125 -1.296875 
L 4.296875 19.90625 
L 6.5 19.90625 
Q 13.203125 2.203125 27.09375 2.203125 
Q 32.40625 2.203125 35.703125 5.34375 
Q 39 8.5 39 13.40625 
Q 39 18.09375 36.09375 21.296875 
Q 31.296875 26.5 19.296875 32.90625 
Q 7.09375 39.40625 7.09375 50.09375 
Q 7.09375 58.09375 12 62.84375 
Q 16.90625 67.59375 24.5 67.59375 
Q 29.796875 67.59375 35 65.40625 
Q 37.703125 64.203125 39.40625 64.203125 
Q 42 64.203125 42.59375 67.59375 
L 44.703125 67.59375 
z
" id="STIXGeneral-Regular-83"/>
       <path d="M 68.796875 33.09375 
Q 68.796875 17.703125 59.6875 8.140625 
Q 50.59375 -1.40625 36.09375 -1.40625 
Q 21.5 -1.40625 12.453125 8.1875 
Q 3.40625 17.796875 3.40625 33.40625 
Q 3.40625 48.59375 12.453125 58.09375 
Q 21.5 67.59375 36.09375 67.59375 
Q 50.703125 67.59375 59.75 57.84375 
Q 68.796875 48.09375 68.796875 33.09375 
z
M 57.40625 33.703125 
Q 57.40625 42.203125 55 48.953125 
Q 52.59375 55.703125 48.296875 59.296875 
Q 42.703125 64 36 64 
Q 27.5 64 21.703125 57.296875 
Q 18.5 53.703125 16.640625 47.046875 
Q 14.796875 40.40625 14.796875 33.203125 
Q 14.796875 15 23.796875 6.703125 
Q 28.703125 2.203125 36.203125 2.203125 
Q 44 2.203125 49.09375 7 
Q 57.40625 15 57.40625 33.703125 
z
" id="STIXGeneral-Regular-79"/>
      </defs>
      <g transform="translate(172.830526 295.313438)scale(0.18 -0.18)">
       <use xlink:href="#STIXGeneral-Regular-80"/>
       <use x="55.699997" xlink:href="#STIXGeneral-Regular-83"/>
       <use x="111.299988" xlink:href="#STIXGeneral-Regular-79"/>
      </g>
     </g>
    </g>
    <g id="xtick_2">
     <g id="text_2">
      <!--  -->
      <g transform="translate(255.308684 295.313438)scale(0.18 -0.18)"/>
      <!--  -->
      <g transform="translate(255.308684 313.972125)scale(0.18 -0.18)"/>
      <!-- С учетом $t_{upd}$ = 5 с -->
      <defs>
       <path d="M 62.203125 13.09375 
L 64.09375 11.296875 
Q 55.203125 -1.40625 36.796875 -1.40625 
Q 22.296875 -1.40625 13.203125 7.5 
Q 3.59375 16.90625 3.59375 32.5 
Q 3.59375 47.09375 12.59375 57.203125 
Q 22 67.59375 36.90625 67.59375 
Q 43.296875 67.59375 48.796875 66.09375 
Q 55.09375 64.296875 55.703125 64.296875 
Q 59 64.296875 59.90625 67.59375 
L 61.90625 67.59375 
L 62.796875 44.90625 
L 60.5 44.90625 
Q 58.90625 52.09375 55.296875 56 
Q 48.203125 63.59375 39.203125 63.59375 
Q 28.09375 63.59375 21.640625 55.4375 
Q 15.203125 47.296875 15.203125 34.09375 
Q 15.203125 18 22.40625 10.203125 
Q 29.09375 3 40.203125 3 
Q 46.796875 3 51.59375 5.296875 
Q 56.40625 7.59375 62.203125 13.09375 
z
" id="STIXGeneral-Regular-1057"/>
       <path id="STIXGeneral-Regular-32"/>
       <path d="M 48.296875 45 
L 48.296875 43.5 
Q 46.5 43.296875 45.453125 42.25 
Q 44.40625 41.203125 43.296875 38.40625 
L 26.90625 -2.5 
Q 22.59375 -13.203125 18.796875 -17.5 
Q 15 -21.796875 9.40625 -21.796875 
Q 6.203125 -21.796875 4.296875 -20.140625 
Q 2.40625 -18.5 2.40625 -16 
Q 2.40625 -14.09375 3.65625 -12.75 
Q 4.90625 -11.40625 6.703125 -11.40625 
Q 9.796875 -11.40625 12.09375 -12.703125 
Q 13.40625 -13.40625 15 -13.40625 
Q 17.796875 -13.40625 21.046875 -7.34375 
Q 24.296875 -1.296875 24.296875 1.203125 
Q 24.296875 2.09375 19.703125 11.796875 
L 6.09375 40.09375 
Q 4.796875 43 0.796875 43.59375 
L 0.796875 45 
L 21.296875 45 
L 21.296875 43.5 
Q 18.09375 43.40625 16.84375 42.796875 
Q 15.59375 42.203125 15.59375 40.796875 
Q 15.59375 39.703125 16.90625 36.703125 
L 28.90625 11.09375 
L 39.40625 38.5 
Q 39.796875 39.40625 39.796875 41.09375 
Q 39.796875 43.5 35 43.5 
L 35 45 
z
" id="STIXGeneral-Regular-1091"/>
       <path d="M 48.90625 45 
L 48.90625 43.5 
Q 44.90625 43.203125 43.796875 42.140625 
Q 42.703125 41.09375 42.703125 37.203125 
L 42.703125 7.703125 
Q 42.703125 4 43.796875 2.953125 
Q 44.90625 1.90625 48.796875 1.5 
L 48.796875 0 
L 28.09375 0 
L 28.09375 1.5 
Q 31.796875 1.796875 33.046875 3 
Q 34.296875 4.203125 34.296875 7.703125 
L 34.296875 21.5 
Q 34.09375 21.40625 32.890625 20.90625 
Q 31.703125 20.40625 31.09375 20.15625 
Q 30.5 19.90625 29.203125 19.5 
Q 27.90625 19.09375 26.84375 18.890625 
Q 25.796875 18.703125 24.296875 18.5 
Q 22.796875 18.296875 21.296875 18.296875 
Q 14.59375 18.296875 11.25 20.34375 
Q 7.90625 22.40625 7.90625 28.796875 
L 7.90625 37.203125 
Q 7.90625 41.203125 6.84375 42.140625 
Q 5.796875 43.09375 1.796875 43.5 
L 1.796875 45 
L 22.59375 45 
L 22.59375 43.5 
Q 18.703125 43.203125 17.5 42.140625 
Q 16.296875 41.09375 16.296875 37.203125 
L 16.296875 29.40625 
Q 16.296875 24.796875 18 23.046875 
Q 19.703125 21.296875 24.59375 21.296875 
Q 26.296875 21.296875 28 21.640625 
Q 29.703125 22 30.546875 22.25 
Q 31.40625 22.5 32.796875 23.09375 
L 34.296875 23.703125 
L 34.296875 37.90625 
Q 34.296875 40.796875 32.9375 42 
Q 31.59375 43.203125 27.796875 43.5 
L 27.796875 45 
z
" id="STIXGeneral-Regular-1095"/>
       <path d="M 42.09375 16.40625 
L 43.703125 15.703125 
Q 37.703125 -1 22.796875 -1 
Q 14 -1 8.890625 5.140625 
Q 3.796875 11.296875 3.796875 21.703125 
Q 3.796875 32.40625 9.5 39.203125 
Q 15.203125 46 24.5 46 
Q 33.5 46 38.40625 39.09375 
Q 41.203125 35.09375 41.796875 27.5 
L 11 27.5 
Q 11 18.59375 14.75 12.390625 
Q 18.5 6.203125 26.296875 6.203125 
Q 31.296875 6.203125 34.84375 8.5 
Q 38.40625 10.796875 42.09375 16.40625 
z
M 11.203125 30.296875 
L 31.59375 30.296875 
Q 30.703125 36.796875 28.59375 39.75 
Q 26.5 42.703125 21.796875 42.703125 
Q 17.703125 42.703125 14.84375 39.34375 
Q 12 36 11.203125 30.296875 
z
" id="STIXGeneral-Regular-1077"/>
       <path d="M 42.59375 30.90625 
L 40.90625 30.90625 
Q 39.90625 36.90625 37.34375 39.546875 
Q 34.796875 42.203125 29.09375 42.203125 
Q 27.203125 42.203125 26.546875 41.5 
Q 25.90625 40.796875 25.90625 39 
L 25.90625 7.203125 
Q 25.90625 4.09375 27.09375 2.9375 
Q 28.296875 1.796875 32.09375 1.5 
L 32.09375 0 
L 11.296875 0 
L 11.296875 1.5 
Q 15.40625 1.796875 16.453125 2.75 
Q 17.5 3.703125 17.5 7.90625 
L 17.5 39 
Q 17.5 41 16.796875 41.59375 
Q 16.09375 42.203125 14.09375 42.203125 
Q 8.5 42.203125 6 39.546875 
Q 3.5 36.90625 2.5 30.90625 
L 0.796875 30.90625 
L 1.296875 45 
L 42.09375 45 
z
" id="STIXGeneral-Regular-1090"/>
       <path d="M 47.59375 23.09375 
Q 47.59375 12.59375 41.34375 5.796875 
Q 35.09375 -1 25.09375 -1 
Q 15.90625 -1 9.703125 5.75 
Q 3.5 12.5 3.5 22.796875 
Q 3.5 33.203125 9.703125 39.59375 
Q 15.90625 46 26 46 
Q 35.296875 46 41.4375 39.640625 
Q 47.59375 33.296875 47.59375 23.09375 
z
M 38.59375 20.40625 
Q 38.59375 31.796875 33.59375 38.203125 
Q 29.59375 43.203125 24.09375 43.203125 
Q 18.90625 43.203125 15.703125 38.953125 
Q 12.5 34.703125 12.5 27.296875 
Q 12.5 14.5 17.796875 6.796875 
Q 21.203125 1.796875 26.796875 1.796875 
Q 32.296875 1.796875 35.4375 6.75 
Q 38.59375 11.703125 38.59375 20.40625 
z
" id="STIXGeneral-Regular-1086"/>
       <path d="M 59.40625 45 
L 59.40625 43.5 
Q 55.40625 43.203125 54.296875 42.046875 
Q 53.203125 40.90625 53.203125 36.59375 
L 53.203125 7.90625 
Q 53.203125 4 54.296875 2.953125 
Q 55.40625 1.90625 59.296875 1.5 
L 59.296875 0 
L 38 0 
L 38 1.5 
Q 42.09375 1.796875 43.4375 2.9375 
Q 44.796875 4.09375 44.796875 7.40625 
L 44.796875 34.796875 
L 44.703125 34.796875 
L 29.5 0 
L 28.59375 0 
L 11.90625 34.40625 
L 11.796875 34.40625 
L 11.796875 7.203125 
Q 11.796875 4.09375 13.140625 2.84375 
Q 14.5 1.59375 18.40625 1.5 
L 18.40625 0 
L 2.296875 0 
L 2.296875 1.5 
Q 6.40625 1.796875 7.453125 2.75 
Q 8.5 3.703125 8.5 7.90625 
L 8.5 36.59375 
Q 8.5 40.59375 7.34375 41.84375 
Q 6.203125 43.09375 2.40625 43.5 
L 2.40625 45 
L 15.796875 45 
L 31.5 12.40625 
L 45.796875 45 
z
" id="STIXGeneral-Regular-1084"/>
       <path d="M 42.28125 54.6875 
L 40.921875 47.703125 
L 23 47.703125 
L 17.1875 18.015625 
Q 16.890625 16.359375 16.75 15.234375 
Q 16.609375 14.109375 16.609375 13.484375 
Q 16.609375 10.359375 18.484375 8.9375 
Q 20.359375 7.515625 24.515625 7.515625 
L 33.59375 7.515625 
L 32.078125 0 
L 23.484375 0 
Q 15.484375 0 11.546875 3.125 
Q 7.625 6.25 7.625 12.59375 
Q 7.625 13.71875 7.765625 15.0625 
Q 7.90625 16.40625 8.203125 18.015625 
L 14.015625 47.703125 
L 6.390625 47.703125 
L 7.8125 54.6875 
L 15.28125 54.6875 
L 18.3125 70.21875 
L 27.296875 70.21875 
L 24.3125 54.6875 
z
" id="DejaVuSans-Oblique-116"/>
       <path d="M 6.6875 21.6875 
L 13.09375 54.6875 
L 22.125 54.6875 
L 15.71875 22.015625 
Q 15.234375 19.625 15.015625 17.921875 
Q 14.796875 16.21875 14.796875 15.09375 
Q 14.796875 10.9375 17.328125 8.65625 
Q 19.875 6.390625 24.515625 6.390625 
Q 31.734375 6.390625 37 11.265625 
Q 42.28125 16.15625 43.890625 24.421875 
L 49.90625 54.6875 
L 58.890625 54.6875 
L 48.296875 0 
L 39.3125 0 
L 41.109375 8.59375 
Q 37.3125 3.8125 32.0625 1.1875 
Q 26.8125 -1.421875 20.90625 -1.421875 
Q 13.71875 -1.421875 9.71875 2.515625 
Q 5.71875 6.453125 5.71875 13.484375 
Q 5.71875 14.9375 5.953125 17.140625 
Q 6.203125 19.34375 6.6875 21.6875 
z
" id="DejaVuSans-Oblique-117"/>
       <path d="M 49.609375 33.6875 
Q 49.609375 40.875 46.484375 44.671875 
Q 43.359375 48.484375 37.5 48.484375 
Q 33.5 48.484375 29.859375 46.4375 
Q 26.21875 44.390625 23.390625 40.484375 
Q 20.609375 36.625 18.9375 31.15625 
Q 17.28125 25.6875 17.28125 20.3125 
Q 17.28125 13.484375 20.40625 9.796875 
Q 23.53125 6.109375 29.296875 6.109375 
Q 33.546875 6.109375 37.1875 8.109375 
Q 40.828125 10.109375 43.40625 13.921875 
Q 46.1875 17.921875 47.890625 23.34375 
Q 49.609375 28.765625 49.609375 33.6875 
z
M 21.78125 46.390625 
Q 25.390625 51.125 30.296875 53.5625 
Q 35.203125 56 41.21875 56 
Q 49.609375 56 54.25 50.5 
Q 58.890625 45.015625 58.890625 35.109375 
Q 58.890625 27 56 19.65625 
Q 53.125 12.3125 47.703125 6.5 
Q 44.09375 2.640625 39.546875 0.609375 
Q 35.015625 -1.421875 29.984375 -1.421875 
Q 24.171875 -1.421875 20.21875 1 
Q 16.265625 3.421875 14.3125 8.203125 
L 8.6875 -20.796875 
L -0.296875 -20.796875 
L 14.40625 54.6875 
L 23.390625 54.6875 
z
" id="DejaVuSans-Oblique-112"/>
       <path d="M 41.796875 8.203125 
Q 38.1875 3.46875 33.25 1.015625 
Q 28.328125 -1.421875 22.3125 -1.421875 
Q 14.109375 -1.421875 9.34375 4.171875 
Q 4.59375 9.765625 4.59375 19.484375 
Q 4.59375 27.59375 7.46875 34.9375 
Q 10.359375 42.28125 15.828125 48.09375 
Q 19.4375 51.953125 23.96875 53.96875 
Q 28.515625 56 33.5 56 
Q 38.765625 56 42.796875 53.453125 
Q 46.828125 50.921875 49.03125 46.1875 
L 54.890625 75.984375 
L 63.921875 75.984375 
L 49.125 0 
L 40.09375 0 
z
M 13.921875 21.09375 
Q 13.921875 14.015625 17.109375 10.0625 
Q 20.3125 6.109375 25.984375 6.109375 
Q 30.171875 6.109375 33.765625 8.125 
Q 37.359375 10.15625 40.09375 14.109375 
Q 42.96875 18.21875 44.625 23.578125 
Q 46.296875 28.953125 46.296875 34.1875 
Q 46.296875 40.96875 43.09375 44.765625 
Q 39.890625 48.578125 34.28125 48.578125 
Q 30.03125 48.578125 26.359375 46.578125 
Q 22.703125 44.578125 20.125 40.828125 
Q 17.28125 36.765625 15.59375 31.390625 
Q 13.921875 26.03125 13.921875 21.09375 
z
" id="DejaVuSans-Oblique-100"/>
       <path d="M 63.703125 32 
L 4.796875 32 
L 4.796875 38.59375 
L 63.703125 38.59375 
z
M 63.703125 12 
L 4.796875 12 
L 4.796875 18.59375 
L 63.703125 18.59375 
z
" id="STIXGeneral-Regular-61"/>
       <path d="M 43.796875 68.09375 
L 40.203125 59.59375 
Q 39.59375 58.296875 37.5 58.296875 
L 18.09375 58.296875 
L 14.09375 49.796875 
Q 25.09375 47.703125 30 45.25 
Q 34.90625 42.796875 39.09375 37 
Q 42.59375 32.203125 42.59375 24.296875 
Q 42.59375 17.09375 40.25 12.1875 
Q 37.90625 7.296875 32.796875 3.5 
Q 26 -1.40625 15.796875 -1.40625 
Q 10.09375 -1.40625 6.59375 0.296875 
Q 3.09375 2 3.09375 4.796875 
Q 3.09375 8.59375 7.59375 8.59375 
Q 11.203125 8.59375 15 5.5 
Q 18.90625 2.296875 22.09375 2.296875 
Q 27.296875 2.296875 31.4375 7.5 
Q 35.59375 12.703125 35.59375 19.203125 
Q 35.59375 28.796875 28.90625 34.203125 
Q 20.203125 41.203125 7.59375 41.203125 
Q 6.40625 41.203125 6.40625 42 
L 6.5 42.5 
L 17.40625 66.203125 
L 38.09375 66.203125 
Q 39.796875 66.203125 40.75 66.703125 
Q 41.703125 67.203125 42.90625 68.796875 
z
" id="STIXGeneral-Regular-53"/>
       <path d="M 41.40625 15.59375 
L 42.796875 14.703125 
Q 38.5 6.296875 34.59375 3.203125 
Q 29.5 -1 23.09375 -1 
Q 14.796875 -1 9.4375 5.25 
Q 4.09375 11.5 4.09375 21.203125 
Q 4.09375 33.90625 12.5 40.90625 
Q 18.703125 46 26 46 
Q 32.296875 46 36.84375 42.953125 
Q 41.40625 39.90625 41.40625 35.703125 
Q 41.40625 34 40 32.75 
Q 38.59375 31.5 36.703125 31.5 
Q 33.203125 31.5 31.90625 36.09375 
L 31.296875 38.296875 
Q 30.5 41.09375 29.296875 42.140625 
Q 28.09375 43.203125 25.40625 43.203125 
Q 19.296875 43.203125 15.546875 38.34375 
Q 11.796875 33.5 11.796875 25.703125 
Q 11.796875 17.09375 16.09375 11.640625 
Q 20.40625 6.203125 27.296875 6.203125 
Q 31.59375 6.203125 34.6875 8.25 
Q 37.796875 10.296875 41.40625 15.59375 
z
" id="STIXGeneral-Regular-1089"/>
      </defs>
      <g transform="translate(180.068684 333.214688)scale(0.18 -0.18)">
       <use transform="translate(0 0.78125)" xlink:href="#STIXGeneral-Regular-1057"/>
       <use transform="translate(67.699982 0.78125)" xlink:href="#STIXGeneral-Regular-32"/>
       <use transform="translate(92.699966 0.78125)" xlink:href="#STIXGeneral-Regular-1091"/>
       <use transform="translate(141.799957 0.78125)" xlink:href="#STIXGeneral-Regular-1095"/>
       <use transform="translate(192.999954 0.78125)" xlink:href="#STIXGeneral-Regular-1077"/>
       <use transform="translate(239.599945 0.78125)" xlink:href="#STIXGeneral-Regular-1090"/>
       <use transform="translate(282.999939 0.78125)" xlink:href="#STIXGeneral-Regular-1086"/>
       <use transform="translate(334.199936 0.78125)" xlink:href="#STIXGeneral-Regular-1084"/>
       <use transform="translate(395.899933 0.78125)" xlink:href="#STIXGeneral-Regular-32"/>
       <use transform="translate(420.899918 0.78125)" xlink:href="#DejaVuSans-Oblique-116"/>
       <use transform="translate(460.108902 -15.625)scale(0.7)" xlink:href="#DejaVuSans-Oblique-117"/>
       <use transform="translate(504.474136 -15.625)scale(0.7)" xlink:href="#DejaVuSans-Oblique-112"/>
       <use transform="translate(548.90773 -15.625)scale(0.7)" xlink:href="#DejaVuSans-Oblique-100"/>
       <use transform="translate(596.075699 0.78125)" xlink:href="#STIXGeneral-Regular-32"/>
       <use transform="translate(621.075684 0.78125)" xlink:href="#STIXGeneral-Regular-61"/>
       <use transform="translate(689.575668 0.78125)" xlink:href="#STIXGeneral-Regular-32"/>
       <use transform="translate(714.575653 0.78125)" xlink:href="#STIXGeneral-Regular-53"/>
       <use transform="translate(764.575638 0.78125)" xlink:href="#STIXGeneral-Regular-32"/>
       <use transform="translate(789.575623 0.78125)" xlink:href="#STIXGeneral-Regular-1089"/>
      </g>
     </g>
    </g>
    <g id="xtick_3">
     <g id="text_3">
      <!-- k-means -->
      <defs>
       <path d="M 50.5 0 
L 28.703125 0 
L 28.703125 1.5 
L 30.59375 1.5 
Q 32.703125 1.5 32.703125 3 
Q 32.703125 3.90625 31.59375 5.296875 
L 16.59375 25.09375 
L 16.59375 6.703125 
Q 16.59375 4.09375 17.84375 2.890625 
Q 19.09375 1.703125 22.09375 1.59375 
L 24.09375 1.5 
L 24.09375 0 
L 0.703125 0 
L 0.703125 1.5 
Q 6.09375 2.40625 7.140625 3.34375 
Q 8.203125 4.296875 8.203125 8.203125 
L 8.203125 56.40625 
Q 8.203125 60 7.296875 61.25 
Q 6.40625 62.5 3.90625 62.5 
Q 3.296875 62.5 0.703125 62.296875 
L 0.703125 63.90625 
L 3.703125 64.703125 
Q 9.703125 66.296875 16.203125 68.296875 
L 16.59375 68.09375 
L 16.59375 26.09375 
L 30.296875 38.296875 
Q 32.59375 40.40625 32.59375 41.796875 
Q 32.59375 42.796875 31.546875 43.140625 
Q 30.5 43.5 27.59375 43.59375 
L 27.59375 45 
L 48 45 
L 48 43.5 
Q 43 43.5 39.140625 41.34375 
Q 35.296875 39.203125 26.40625 30.90625 
L 23.5 28.203125 
L 38.796875 8.796875 
Q 44.203125 1.90625 50.5 1.5 
z
" id="STIXGeneral-Regular-107"/>
       <path d="M 28.5 19.40625 
L 3.90625 19.40625 
L 3.90625 25.703125 
L 28.5 25.703125 
z
" id="STIXGeneral-Regular-45"/>
       <path d="M 77.5 0 
L 55.703125 0 
L 55.703125 1.5 
Q 59.90625 1.90625 61.046875 3.25 
Q 62.203125 4.59375 62.203125 9 
L 62.203125 29.59375 
Q 62.203125 35.59375 60.453125 38.1875 
Q 58.703125 40.796875 54.5 40.796875 
Q 51 40.796875 48.546875 39.390625 
Q 46.09375 38 43.796875 34.703125 
L 43.796875 9.5 
Q 43.796875 4.703125 45.25 3.140625 
Q 46.703125 1.59375 51 1.5 
L 51 0 
L 28.59375 0 
L 28.59375 1.5 
Q 33 1.796875 34.203125 2.9375 
Q 35.40625 4.09375 35.40625 8.59375 
L 35.40625 29.703125 
Q 35.40625 40.796875 28.90625 40.796875 
Q 26.09375 40.796875 22.9375 39.546875 
Q 19.796875 38.296875 18.296875 36.5 
Q 17 35 17 34.796875 
L 17 7 
Q 17 3.796875 18.390625 2.75 
Q 19.796875 1.703125 23.796875 1.5 
L 23.796875 0 
L 1.59375 0 
L 1.59375 1.5 
Q 5.796875 1.59375 7.1875 3.046875 
Q 8.59375 4.5 8.59375 8.796875 
L 8.59375 33.59375 
Q 8.59375 37.296875 7.796875 38.75 
Q 7 40.203125 5.09375 40.203125 
Q 3.59375 40.203125 1.90625 39.796875 
L 1.90625 41.5 
Q 8.703125 43.40625 15.796875 46 
L 16.59375 45.703125 
L 16.59375 38.296875 
L 16.796875 38.296875 
Q 21.296875 43 24.75 44.5 
Q 28.203125 46 32.09375 46 
Q 40 46 42.703125 37.59375 
Q 50.5 46 59 46 
Q 70.59375 46 70.59375 28 
L 70.59375 7.703125 
Q 70.59375 4.40625 71.59375 3.15625 
Q 72.59375 1.90625 74.90625 1.703125 
L 77.5 1.5 
z
" id="STIXGeneral-Regular-109"/>
       <path d="M 40.796875 16.40625 
L 42.40625 15.703125 
Q 36.40625 -1 21.5 -1 
Q 12.703125 -1 7.59375 5.140625 
Q 2.5 11.296875 2.5 21.703125 
Q 2.5 32.40625 8.203125 39.203125 
Q 13.90625 46 23.203125 46 
Q 32.203125 46 37.09375 39.09375 
Q 40 35.09375 40.5 27.703125 
L 9.703125 27.703125 
Q 10.09375 21.40625 10.9375 18.09375 
Q 11.796875 14.796875 14.296875 11.40625 
Q 18.5 5.90625 25.40625 5.90625 
Q 30.296875 5.90625 33.640625 8.296875 
Q 37 10.703125 40.796875 16.40625 
z
M 9.90625 30.90625 
L 30.296875 30.90625 
Q 29.40625 37.203125 27.34375 39.796875 
Q 25.296875 42.40625 20.5 42.40625 
Q 16.296875 42.40625 13.5 39.453125 
Q 10.703125 36.5 9.90625 30.90625 
z
" id="STIXGeneral-Regular-101"/>
       <path d="M 44.203125 6.59375 
L 44.203125 3.796875 
Q 40.40625 -1 35.203125 -1 
Q 29.5 -1 28.796875 6.296875 
L 28.703125 6.296875 
Q 22.296875 -1 14.203125 -1 
Q 9.5 -1 6.59375 1.75 
Q 3.703125 4.5 3.703125 9.40625 
Q 3.703125 16.40625 10.703125 21.09375 
Q 15.5 24.296875 28.703125 29.203125 
L 28.703125 34.59375 
Q 28.703125 39.09375 26.546875 41.34375 
Q 24.40625 43.59375 20.90625 43.59375 
Q 17.90625 43.59375 15.90625 42.140625 
Q 13.90625 40.703125 13.90625 38.703125 
Q 13.90625 37.796875 14.203125 36.6875 
Q 14.5 35.59375 14.5 34.5 
Q 14.5 33 13.140625 31.703125 
Q 11.796875 30.40625 9.90625 30.40625 
Q 8.203125 30.40625 6.890625 31.703125 
Q 5.59375 33 5.59375 35 
Q 5.59375 39.796875 10.703125 43 
Q 15.40625 46 22.203125 46 
Q 30.296875 46 34 41.5 
Q 35.796875 39.40625 36.296875 37.25 
Q 36.796875 35.09375 36.796875 30.40625 
L 36.796875 11.296875 
Q 36.796875 4.703125 39.90625 4.703125 
Q 41.90625 4.703125 44.203125 6.59375 
z
M 28.703125 12.703125 
L 28.703125 26.796875 
Q 19.5 23.59375 15.90625 20.203125 
Q 12.5 17.09375 12.5 12.5 
Q 12.5 8.703125 14.390625 6.75 
Q 16.296875 4.796875 19.40625 4.796875 
Q 22.703125 4.796875 25.203125 6.40625 
Q 27.296875 7.90625 28 9.203125 
Q 28.703125 10.5 28.703125 12.703125 
z
" id="STIXGeneral-Regular-97"/>
       <path d="M 48.5 0 
L 27.703125 0 
L 27.796875 1.5 
Q 31.5 1.796875 32.75 3.640625 
Q 34 5.5 34 10.5 
L 34 30.40625 
Q 34 40.5 26.703125 40.5 
Q 24.203125 40.5 22 39.296875 
Q 19.796875 38.09375 16.40625 34.796875 
L 16.40625 7.203125 
Q 16.40625 4.203125 17.75 3 
Q 19.09375 1.796875 22.90625 1.5 
L 22.90625 0 
L 1.796875 0 
L 1.796875 1.5 
Q 5.59375 1.796875 6.796875 3.34375 
Q 8 4.90625 8 9.40625 
L 8 33.703125 
Q 8 37.40625 7.296875 38.796875 
Q 6.59375 40.203125 4.5 40.203125 
Q 2.5 40.203125 1.59375 39.796875 
L 1.59375 41.5 
Q 8.59375 43.5 15.296875 46 
L 16.09375 45.703125 
L 16.09375 37.90625 
L 16.203125 37.90625 
Q 23.296875 46 30.59375 46 
Q 36.296875 46 39.34375 42 
Q 42.40625 38 42.40625 30.59375 
L 42.40625 8.5 
Q 42.40625 4.5 43.59375 3.203125 
Q 44.796875 1.90625 48.5 1.5 
z
" id="STIXGeneral-Regular-110"/>
       <path d="M 15.59375 30.09375 
L 26 23.796875 
Q 31 20.796875 32.890625 18.1875 
Q 34.796875 15.59375 34.796875 11.5 
Q 34.796875 6.5 30.640625 2.75 
Q 26.5 -1 20.796875 -1 
Q 16.09375 -1 13.5 -0.09375 
Q 10.796875 0.796875 8.90625 0.796875 
Q 7.203125 0.796875 6.5 -0.40625 
L 5.203125 -0.40625 
L 5.203125 15.296875 
L 6.796875 15.296875 
Q 8.40625 8 11.40625 4.59375 
Q 14.40625 1.203125 19.5 1.203125 
Q 23.203125 1.203125 25.5 3.296875 
Q 27.796875 5.40625 27.796875 8.59375 
Q 27.796875 13.203125 22.5 16.09375 
L 17.09375 19.09375 
Q 5.09375 25.796875 5.09375 33.59375 
Q 5.09375 39.40625 8.84375 42.65625 
Q 12.59375 45.90625 18.90625 45.90625 
Q 23.296875 45.90625 25.59375 44.796875 
Q 27.40625 44 28.40625 44 
Q 29.09375 44 30 45 
L 31.09375 45 
L 31.59375 31.40625 
L 30.09375 31.40625 
Q 28.40625 38.203125 25.84375 40.953125 
Q 23.296875 43.703125 18.796875 43.703125 
Q 15.40625 43.703125 13.34375 42 
Q 11.296875 40.296875 11.296875 36.90625 
Q 11.296875 35.203125 12.4375 33.25 
Q 13.59375 31.296875 15.59375 30.09375 
z
" id="STIXGeneral-Regular-115"/>
      </defs>
      <g transform="translate(290.778717 295.313438)scale(0.18 -0.18)">
       <use xlink:href="#STIXGeneral-Regular-107"/>
       <use x="49.999985" xlink:href="#STIXGeneral-Regular-45"/>
       <use x="83.299973" xlink:href="#STIXGeneral-Regular-109"/>
       <use x="161.09996" xlink:href="#STIXGeneral-Regular-101"/>
       <use x="205.499954" xlink:href="#STIXGeneral-Regular-97"/>
       <use x="249.899948" xlink:href="#STIXGeneral-Regular-110"/>
       <use x="299.899933" xlink:href="#STIXGeneral-Regular-115"/>
      </g>
     </g>
    </g>
    <g id="xtick_4">
     <g id="text_4">
      <!-- PSO -->
      <g transform="translate(436.683158 295.313438)scale(0.18 -0.18)">
       <use xlink:href="#STIXGeneral-Regular-80"/>
       <use x="55.699997" xlink:href="#STIXGeneral-Regular-83"/>
       <use x="111.299988" xlink:href="#STIXGeneral-Regular-79"/>
      </g>
     </g>
    </g>
    <g id="xtick_5">
     <g id="text_5">
      <!--  -->
      <g transform="translate(519.161316 295.313438)scale(0.18 -0.18)"/>
      <!--  -->
      <g transform="translate(519.161316 313.972125)scale(0.18 -0.18)"/>
      <!-- Без учета $t_{upd}$ -->
      <defs>
       <path d="M 21.703125 36.59375 
L 29.09375 36.59375 
Q 33.40625 36.59375 36.90625 36.296875 
Q 40.40625 36 44.5 34.84375 
Q 48.59375 33.703125 51.296875 31.796875 
Q 54 29.90625 55.84375 26.40625 
Q 57.703125 22.90625 57.703125 18.203125 
Q 57.703125 9.90625 51.203125 4.953125 
Q 44.703125 0 33.796875 0 
L 1.90625 0 
L 1.90625 1.90625 
Q 7.796875 2.09375 9.640625 3.84375 
Q 11.5 5.59375 11.5 11.296875 
L 11.5 55 
Q 11.5 60.796875 9.796875 62.34375 
Q 8.09375 63.90625 1.90625 64.296875 
L 1.90625 66.203125 
L 53.09375 66.203125 
L 53.59375 49.40625 
L 51.203125 49.40625 
Q 51.09375 50.296875 50.203125 53.40625 
Q 47.59375 62.40625 37.59375 62.40625 
L 25.203125 62.40625 
Q 23.09375 62.40625 22.390625 61.65625 
Q 21.703125 60.90625 21.703125 58.796875 
z
M 21.703125 32.59375 
L 21.703125 8.296875 
Q 21.703125 5.5 22.390625 4.640625 
Q 23.09375 3.796875 26.09375 3.796875 
Q 35.703125 3.796875 40.953125 6.75 
Q 46.203125 9.703125 46.203125 17.90625 
Q 46.203125 32.59375 27.703125 32.59375 
z
" id="STIXGeneral-Regular-1041"/>
       <path d="M 22.796875 24.203125 
L 22.796875 24.09375 
Q 28.203125 23.59375 31.953125 20.75 
Q 35.703125 17.90625 35.703125 12.90625 
Q 35.703125 6.59375 29.5 2.296875 
Q 24.59375 -1 17 -1 
Q 11.5 -1 8 1.140625 
Q 4.5 3.296875 1.40625 7.703125 
L 2.796875 9.09375 
Q 6.703125 5.40625 9.34375 4 
Q 12 2.59375 15.796875 2.59375 
Q 21 2.59375 23.75 5.4375 
Q 26.5 8.296875 26.5 12.40625 
Q 26.5 17.90625 22.890625 20.203125 
Q 19.296875 22.5 12 22.5 
L 12 25.296875 
Q 17.5 25.296875 20.796875 27 
Q 22.90625 28.09375 24.09375 30.140625 
Q 25.296875 32.203125 25.296875 34.40625 
Q 25.296875 38.703125 23.046875 40.953125 
Q 20.796875 43.203125 17 43.203125 
Q 11.703125 43.203125 8.890625 39.796875 
Q 6.09375 36.40625 4.90625 29.90625 
L 3.203125 29.90625 
L 3.90625 46 
L 5.203125 46 
Q 5.703125 43.703125 7.796875 43.703125 
Q 8.40625 43.703125 9.65625 44.25 
Q 10.90625 44.796875 11.40625 44.90625 
Q 15.296875 46 17.203125 46 
Q 24.09375 46 27.796875 44.203125 
Q 33.90625 41.203125 33.90625 35.40625 
Q 33.90625 31.203125 30.546875 28.09375 
Q 27.203125 25 22.796875 24.203125 
z
" id="STIXGeneral-Regular-1079"/>
       <path d="M 44.59375 6.59375 
L 44.59375 3.796875 
Q 40.796875 -1 35.59375 -1 
Q 29.90625 -1 29.203125 6.296875 
L 29.09375 6.296875 
Q 22.703125 -1 14.203125 -1 
Q 9.5 -1 6.59375 1.75 
Q 3.703125 4.5 3.703125 9.40625 
Q 3.703125 16.40625 10.703125 21.09375 
Q 15 23.90625 29.09375 29.203125 
L 29.09375 34.59375 
Q 29.09375 39 26.796875 41.140625 
Q 24.5 43.296875 20.90625 43.296875 
Q 17.90625 43.296875 15.90625 42 
Q 13.90625 40.703125 13.90625 38.703125 
Q 13.90625 37.796875 14.203125 36.6875 
Q 14.5 35.59375 14.5 34.5 
Q 14.5 33 13.140625 31.703125 
Q 11.796875 30.40625 9.90625 30.40625 
Q 8.203125 30.40625 6.890625 31.703125 
Q 5.59375 33 5.59375 35 
Q 5.59375 39.796875 10.703125 43 
Q 15.40625 46 22.203125 46 
Q 30.296875 46 34 41.5 
Q 35.90625 39.203125 36.546875 37 
Q 37.203125 34.796875 37.203125 30.40625 
L 37.203125 11.296875 
Q 37.203125 4.703125 40.296875 4.703125 
Q 42.296875 4.703125 44.59375 6.59375 
z
M 29.09375 13 
L 29.09375 26.40625 
Q 20 23.203125 15.90625 19.40625 
Q 12.5 16.296875 12.5 12.5 
Q 12.5 8.703125 14.390625 6.75 
Q 16.296875 4.796875 19.40625 4.796875 
Q 23.09375 4.796875 25.59375 6.40625 
Q 27.703125 7.796875 28.390625 9.25 
Q 29.09375 10.703125 29.09375 13 
z
" id="STIXGeneral-Regular-1072"/>
      </defs>
      <g transform="translate(464.441316 333.214688)scale(0.18 -0.18)">
       <use transform="translate(0 0.78125)" xlink:href="#STIXGeneral-Regular-1041"/>
       <use transform="translate(61.099991 0.78125)" xlink:href="#STIXGeneral-Regular-1077"/>
       <use transform="translate(107.699982 0.78125)" xlink:href="#STIXGeneral-Regular-1079"/>
       <use transform="translate(146.699966 0.78125)" xlink:href="#STIXGeneral-Regular-32"/>
       <use transform="translate(171.699951 0.78125)" xlink:href="#STIXGeneral-Regular-1091"/>
       <use transform="translate(220.799942 0.78125)" xlink:href="#STIXGeneral-Regular-1095"/>
       <use transform="translate(271.999939 0.78125)" xlink:href="#STIXGeneral-Regular-1077"/>
       <use transform="translate(318.59993 0.78125)" xlink:href="#STIXGeneral-Regular-1090"/>
       <use transform="translate(361.999924 0.78125)" xlink:href="#STIXGeneral-Regular-1072"/>
       <use transform="translate(406.999908 0.78125)" xlink:href="#STIXGeneral-Regular-32"/>
       <use transform="translate(431.999893 0.78125)" xlink:href="#DejaVuSans-Oblique-116"/>
       <use transform="translate(471.208878 -15.625)scale(0.7)" xlink:href="#DejaVuSans-Oblique-117"/>
       <use transform="translate(515.574112 -15.625)scale(0.7)" xlink:href="#DejaVuSans-Oblique-112"/>
       <use transform="translate(560.007706 -15.625)scale(0.7)" xlink:href="#DejaVuSans-Oblique-100"/>
      </g>
     </g>
    </g>
    <g id="xtick_6">
     <g id="text_6">
      <!-- k-means -->
      <g transform="translate(554.631349 295.313438)scale(0.18 -0.18)">
       <use xlink:href="#STIXGeneral-Regular-107"/>
       <use x="49.999985" xlink:href="#STIXGeneral-Regular-45"/>
       <use x="83.299973" xlink:href="#STIXGeneral-Regular-109"/>
       <use x="161.09996" xlink:href="#STIXGeneral-Regular-101"/>
       <use x="205.499954" xlink:href="#STIXGeneral-Regular-97"/>
       <use x="249.899948" xlink:href="#STIXGeneral-Regular-110"/>
       <use x="299.899933" xlink:href="#STIXGeneral-Regular-115"/>
      </g>
     </g>
    </g>
   </g>
   <g id="matplotlib.axis_2">
    <g id="ytick_1">
     <g id="line2d_1">
      <path clip-path="url(#pdd1dda3707)" d="M 73.91 276.02 
L 700.56 276.02 
" style="fill:none;stroke:#b0b0b0;stroke-linecap:square;stroke-opacity:0.4;stroke-width:0.8;"/>
     </g>
     <g id="line2d_2">
      <defs>
       <path d="M 0 0 
L -3.5 0 
" id="m3797997311" style="stroke:#000000;stroke-width:0.8;"/>
      </defs>
      <g>
       <use style="stroke:#000000;stroke-width:0.8;" x="73.91" xlink:href="#m3797997311" y="276.02"/>
      </g>
     </g>
     <g id="text_7">
      <!-- 0 -->
      <defs>
       <path d="M 47.59375 33 
Q 47.59375 26.296875 46.296875 20.34375 
Q 45 14.40625 42.453125 9.40625 
Q 39.90625 4.40625 35.40625 1.5 
Q 30.90625 -1.40625 25 -1.40625 
Q 18.90625 -1.40625 14.296875 1.6875 
Q 9.703125 4.796875 7.203125 10 
Q 4.703125 15.203125 3.546875 21.09375 
Q 2.40625 27 2.40625 33.59375 
Q 2.40625 42.90625 4.703125 50.34375 
Q 7 57.796875 12.34375 62.6875 
Q 17.703125 67.59375 25.40625 67.59375 
Q 35.203125 67.59375 41.390625 58 
Q 47.59375 48.40625 47.59375 33 
z
M 38 32.5 
Q 38 48.296875 34.640625 56.640625 
Q 31.296875 65 24.796875 65 
Q 18.59375 65 15.296875 56.59375 
Q 12 48.203125 12 32.90625 
Q 12 17.5 15.296875 9.34375 
Q 18.59375 1.203125 25 1.203125 
Q 31.296875 1.203125 34.640625 9.34375 
Q 38 17.5 38 32.5 
z
" id="STIXGeneral-Regular-48"/>
      </defs>
      <g transform="translate(57.91 282.166719)scale(0.18 -0.18)">
       <use xlink:href="#STIXGeneral-Regular-48"/>
      </g>
     </g>
    </g>
    <g id="ytick_2">
     <g id="line2d_3">
      <path clip-path="url(#pdd1dda3707)" d="M 73.91 244.8808 
L 700.56 244.8808 
" style="fill:none;stroke:#b0b0b0;stroke-linecap:square;stroke-opacity:0.4;stroke-width:0.8;"/>
     </g>
     <g id="line2d_4">
      <g>
       <use style="stroke:#000000;stroke-width:0.8;" x="73.91" xlink:href="#m3797997311" y="244.8808"/>
      </g>
     </g>
     <g id="text_8">
      <!-- 20 -->
      <defs>
       <path d="M 47.40625 13.703125 
L 42 0 
L 2.90625 0 
L 2.90625 1.203125 
L 20.703125 20.09375 
Q 27.703125 27.40625 30.703125 33.5 
Q 33.703125 39.59375 33.703125 46.09375 
Q 33.703125 52.796875 30 56.5 
Q 26.296875 60.203125 19.796875 60.203125 
Q 14.40625 60.203125 11.25 57.390625 
Q 8.09375 54.59375 5.09375 47.203125 
L 3 47.703125 
Q 4.703125 57 9.84375 62.296875 
Q 15 67.59375 23.796875 67.59375 
Q 32.09375 67.59375 37.1875 62.59375 
Q 42.296875 57.59375 42.296875 50 
Q 42.296875 38.703125 29.5 25.203125 
L 13 7.59375 
L 36.40625 7.59375 
Q 39.703125 7.59375 41.640625 8.890625 
Q 43.59375 10.203125 46 14.296875 
z
" id="STIXGeneral-Regular-50"/>
      </defs>
      <g transform="translate(48.91 251.027519)scale(0.18 -0.18)">
       <use xlink:href="#STIXGeneral-Regular-50"/>
       <use x="49.999985" xlink:href="#STIXGeneral-Regular-48"/>
      </g>
     </g>
    </g>
    <g id="ytick_3">
     <g id="line2d_5">
      <path clip-path="url(#pdd1dda3707)" d="M 73.91 213.7416 
L 700.56 213.7416 
" style="fill:none;stroke:#b0b0b0;stroke-linecap:square;stroke-opacity:0.4;stroke-width:0.8;"/>
     </g>
     <g id="line2d_6">
      <g>
       <use style="stroke:#000000;stroke-width:0.8;" x="73.91" xlink:href="#m3797997311" y="213.7416"/>
      </g>
     </g>
     <g id="text_9">
      <!-- 40 -->
      <defs>
       <path d="M 47.296875 16.703125 
L 37 16.703125 
L 37 0 
L 29.203125 0 
L 29.203125 16.703125 
L 1.203125 16.703125 
L 1.203125 23.09375 
L 32.59375 67.59375 
L 37 67.59375 
L 37 23.09375 
L 47.296875 23.09375 
z
M 29.203125 23.09375 
L 29.203125 57.40625 
L 5.203125 23.09375 
z
" id="STIXGeneral-Regular-52"/>
      </defs>
      <g transform="translate(48.91 219.888319)scale(0.18 -0.18)">
       <use xlink:href="#STIXGeneral-Regular-52"/>
       <use x="49.999985" xlink:href="#STIXGeneral-Regular-48"/>
      </g>
     </g>
    </g>
    <g id="ytick_4">
     <g id="line2d_7">
      <path clip-path="url(#pdd1dda3707)" d="M 73.91 182.6024 
L 700.56 182.6024 
" style="fill:none;stroke:#b0b0b0;stroke-linecap:square;stroke-opacity:0.4;stroke-width:0.8;"/>
     </g>
     <g id="line2d_8">
      <g>
       <use style="stroke:#000000;stroke-width:0.8;" x="73.91" xlink:href="#m3797997311" y="182.6024"/>
      </g>
     </g>
     <g id="text_10">
      <!-- 60 -->
      <defs>
       <path d="M 44.59375 68.40625 
L 44.796875 66.796875 
Q 33 64.90625 25.09375 57.25 
Q 17.203125 49.59375 15.203125 38.296875 
Q 21 42.796875 27.90625 42.796875 
Q 36.703125 42.796875 41.75 37.1875 
Q 46.796875 31.59375 46.796875 21.90625 
Q 46.796875 12.09375 41.703125 5.90625 
Q 35.796875 -1.40625 25.796875 -1.40625 
Q 13.59375 -1.40625 8.09375 8.703125 
Q 3.40625 17.296875 3.40625 27.90625 
Q 3.40625 44.296875 14.296875 55.5 
Q 20.5 61.90625 27.046875 64.546875 
Q 33.59375 67.203125 44.59375 68.40625 
z
M 37.796875 18.796875 
Q 37.796875 38.203125 24.296875 38.203125 
Q 19.296875 38.203125 16 35.546875 
Q 12.703125 32.90625 12.703125 26.59375 
Q 12.703125 14.90625 16.34375 8.15625 
Q 20 1.40625 26.90625 1.40625 
Q 32.203125 1.40625 35 6.15625 
Q 37.796875 10.90625 37.796875 18.796875 
z
" id="STIXGeneral-Regular-54"/>
      </defs>
      <g transform="translate(48.91 188.749119)scale(0.18 -0.18)">
       <use xlink:href="#STIXGeneral-Regular-54"/>
       <use x="49.999985" xlink:href="#STIXGeneral-Regular-48"/>
      </g>
     </g>
    </g>
    <g id="ytick_5">
     <g id="line2d_9">
      <path clip-path="url(#pdd1dda3707)" d="M 73.91 151.4632 
L 700.56 151.4632 
" style="fill:none;stroke:#b0b0b0;stroke-linecap:square;stroke-opacity:0.4;stroke-width:0.8;"/>
     </g>
     <g id="line2d_10">
      <g>
       <use style="stroke:#000000;stroke-width:0.8;" x="73.91" xlink:href="#m3797997311" y="151.4632"/>
      </g>
     </g>
     <g id="text_11">
      <!-- 80 -->
      <defs>
       <path d="M 44.5 15.5 
Q 44.5 7.796875 39.140625 3.1875 
Q 33.796875 -1.40625 24.796875 -1.40625 
Q 16.40625 -1.40625 11 3.1875 
Q 5.59375 7.796875 5.59375 14.90625 
Q 5.59375 20.203125 8.1875 23.953125 
Q 10.796875 27.703125 18.59375 33.203125 
Q 11.09375 39.40625 8.640625 43.203125 
Q 6.203125 47 6.203125 52 
Q 6.203125 59.09375 11.640625 63.34375 
Q 17.09375 67.59375 25.59375 67.59375 
Q 32.90625 67.59375 37.65625 63.4375 
Q 42.40625 59.296875 42.40625 53.296875 
Q 42.40625 47.796875 39.546875 44.5 
Q 36.703125 41.203125 29 37.09375 
Q 38 31.09375 41.25 26.390625 
Q 44.5 21.703125 44.5 15.5 
z
M 35.5 53.296875 
Q 35.5 58.5 32.59375 61.640625 
Q 29.703125 64.796875 24.59375 64.796875 
Q 19.5 64.796875 16.546875 62.140625 
Q 13.59375 59.5 13.59375 54.890625 
Q 13.59375 50.296875 16.546875 46.546875 
Q 19.5 42.796875 26.09375 38.90625 
Q 31.203125 41.90625 33.34375 45.25 
Q 35.5 48.59375 35.5 53.296875 
z
M 27.09375 27.203125 
L 21.203125 31.203125 
Q 16.796875 27.59375 15 24.140625 
Q 13.203125 20.703125 13.203125 15.796875 
Q 13.203125 9 16.640625 5.203125 
Q 20.09375 1.40625 25.90625 1.40625 
Q 30.796875 1.40625 33.84375 4.453125 
Q 36.90625 7.5 36.90625 12.40625 
Q 36.90625 16.90625 34.59375 20.296875 
Q 32.296875 23.703125 27.09375 27.203125 
z
" id="STIXGeneral-Regular-56"/>
      </defs>
      <g transform="translate(48.91 157.609919)scale(0.18 -0.18)">
       <use xlink:href="#STIXGeneral-Regular-56"/>
       <use x="49.999985" xlink:href="#STIXGeneral-Regular-48"/>
      </g>
     </g>
    </g>
    <g id="ytick_6">
     <g id="line2d_11">
      <path clip-path="url(#pdd1dda3707)" d="M 73.91 120.324 
L 700.56 120.324 
" style="fill:none;stroke:#b0b0b0;stroke-linecap:square;stroke-opacity:0.4;stroke-width:0.8;"/>
     </g>
     <g id="line2d_12">
      <g>
       <use style="stroke:#000000;stroke-width:0.8;" x="73.91" xlink:href="#m3797997311" y="120.324"/>
      </g>
     </g>
     <g id="text_12">
      <!-- 100 -->
      <defs>
       <path d="M 39.40625 0 
L 11.796875 0 
L 11.796875 1.5 
Q 17.296875 1.796875 19.296875 3.546875 
Q 21.296875 5.296875 21.296875 9.5 
L 21.296875 54.40625 
Q 21.296875 59.296875 18.296875 59.296875 
Q 16.90625 59.296875 13.796875 58.09375 
L 11.09375 57.09375 
L 11.09375 58.5 
L 29 67.59375 
L 29.90625 67.296875 
L 29.90625 7.59375 
Q 29.90625 4.296875 31.90625 2.890625 
Q 33.90625 1.5 39.40625 1.5 
z
" id="STIXGeneral-Regular-49"/>
      </defs>
      <g transform="translate(39.91 126.470719)scale(0.18 -0.18)">
       <use xlink:href="#STIXGeneral-Regular-49"/>
       <use x="49.999985" xlink:href="#STIXGeneral-Regular-48"/>
       <use x="99.999969" xlink:href="#STIXGeneral-Regular-48"/>
      </g>
     </g>
    </g>
    <g id="text_13">
     <!-- Доля пользователей, % -->
     <defs>
      <path d="M 64.59375 -15.296875 
L 62.203125 -15.296875 
Q 61.796875 -12.296875 61.203125 -10.09375 
Q 58.296875 0 48.59375 0 
L 17.40625 0 
Q 7.703125 0 4.796875 -10.09375 
Q 4.203125 -12.296875 3.796875 -15.296875 
L 1.40625 -15.296875 
L 1.40625 1.90625 
L 3.40625 1.90625 
Q 8.796875 1.90625 11.9375 7.046875 
Q 15.09375 12.203125 16.5 23.640625 
Q 17.90625 35.09375 18 55 
Q 18 60.5 16.046875 62.34375 
Q 14.09375 64.203125 9.40625 64.296875 
L 9.40625 66.203125 
L 64.59375 66.203125 
L 64.59375 64.296875 
Q 58.90625 63.796875 57.296875 62.140625 
Q 55.703125 60.5 55.703125 54.796875 
L 55.703125 11.5 
Q 55.703125 6.296875 57.390625 4.09375 
Q 59.09375 1.90625 64.59375 1.90625 
z
M 45.5 8.203125 
L 45.5 58.796875 
Q 45.5 60.90625 44.75 61.65625 
Q 44 62.40625 42 62.40625 
L 26.09375 62.40625 
Q 24.59375 62.40625 24 62.25 
Q 23.40625 62.09375 23 61.34375 
Q 22.59375 60.59375 22.59375 58.796875 
Q 22.59375 34.90625 21 22.40625 
Q 19.40625 9.90625 15.296875 3.796875 
L 41.796875 3.796875 
Q 43.90625 3.796875 44.703125 4.796875 
Q 45.5 5.796875 45.5 8.203125 
z
" id="STIXGeneral-Regular-1044"/>
      <path d="M 47.59375 45 
L 47.59375 43.5 
Q 43.59375 43.203125 42.5 42.046875 
Q 41.40625 40.90625 41.40625 36.59375 
L 41.40625 7.90625 
Q 41.40625 4 42.5 2.953125 
Q 43.59375 1.90625 47.5 1.5 
L 47.5 0 
L 26.796875 0 
L 26.796875 1.5 
Q 30.59375 1.796875 31.796875 2.9375 
Q 33 4.09375 33 7.40625 
L 33 37.90625 
Q 33 40.703125 32.296875 41.453125 
Q 31.59375 42.203125 29 42.203125 
L 22 42.203125 
Q 20 42.203125 19.140625 41.203125 
Q 18.296875 40.203125 18.296875 37.703125 
L 18.296875 17.90625 
Q 18.296875 15.59375 18.1875 14.046875 
Q 18.09375 12.5 17.84375 10 
Q 17.59375 7.5 16.890625 5.796875 
Q 16.203125 4.09375 15.09375 2.390625 
Q 14 0.703125 12.09375 -0.140625 
Q 10.203125 -1 7.796875 -1 
Q 0.796875 -1 0.796875 4 
Q 0.796875 5.796875 2 6.796875 
Q 3.203125 7.796875 4.59375 7.796875 
Q 6.703125 7.796875 8 5.09375 
Q 9.296875 2.40625 10.09375 2.40625 
Q 15 2.40625 15 19.90625 
L 15 36.59375 
Q 15 40.59375 13.84375 41.84375 
Q 12.703125 43.09375 8.90625 43.5 
L 8.90625 45 
z
" id="STIXGeneral-Regular-1083"/>
      <path d="M 44.796875 45 
L 44.796875 43.5 
Q 40.90625 43.203125 39.75 42.046875 
Q 38.59375 40.90625 38.59375 36.59375 
L 38.59375 7.90625 
Q 38.59375 4 39.6875 3.046875 
Q 40.796875 2.09375 44.703125 1.703125 
L 44.703125 0 
L 24.5 0 
L 24.5 1.5 
Q 28.203125 1.703125 29.203125 2.75 
Q 30.203125 3.796875 30.203125 7.59375 
L 30.203125 20.59375 
L 28.296875 20.59375 
L 12.796875 0 
L 0.40625 0 
L 0.40625 1.5 
Q 3.796875 1.796875 7.40625 6.203125 
L 19.296875 20.90625 
Q 13.09375 21.703125 9.140625 25 
Q 5.203125 28.296875 5.203125 33.5 
Q 5.203125 37.09375 6.59375 39.5 
Q 8 41.90625 10.84375 43.046875 
Q 13.703125 44.203125 16.75 44.59375 
Q 19.796875 45 24.203125 45 
z
M 30.203125 23.40625 
L 30.203125 39.09375 
Q 30.203125 41 29.59375 41.59375 
Q 29 42.203125 27.203125 42.203125 
Q 21.40625 42.203125 17.84375 40.25 
Q 14.296875 38.296875 14.296875 32.90625 
Q 14.296875 28.296875 17.390625 25.84375 
Q 20.5 23.40625 26.203125 23.40625 
z
" id="STIXGeneral-Regular-1103"/>
      <path d="M 50.203125 45 
L 50.203125 43.5 
Q 46.296875 43.296875 45.140625 42.25 
Q 44 41.203125 44 36.796875 
L 44 7.5 
Q 44 3.703125 45.046875 2.796875 
Q 46.09375 1.90625 50.09375 1.5 
L 50.09375 0 
L 29.703125 0 
L 29.703125 1.5 
Q 33.40625 1.796875 34.5 2.9375 
Q 35.59375 4.09375 35.59375 7.40625 
L 35.59375 37.203125 
Q 35.59375 42.203125 31.09375 42.203125 
L 21.09375 42.203125 
Q 16.90625 42.203125 16.90625 37.203125 
L 16.90625 7.203125 
Q 16.90625 4.203125 18.15625 3 
Q 19.40625 1.796875 23.09375 1.5 
L 23.09375 0 
L 2.296875 0 
L 2.296875 1.5 
Q 6.296875 1.796875 7.390625 2.84375 
Q 8.5 3.90625 8.5 7.796875 
L 8.5 37 
Q 8.5 41.40625 7.453125 42.34375 
Q 6.40625 43.296875 2.40625 43.5 
L 2.40625 45 
z
" id="STIXGeneral-Regular-1087"/>
      <path d="M 16.90625 25.203125 
L 23.5 25.203125 
Q 32 25.203125 37.25 22.046875 
Q 42.5 18.90625 42.5 12.40625 
Q 42.5 6.59375 37.796875 3.296875 
Q 33.09375 0 25.5 0 
L 2.296875 0 
L 2.296875 1.5 
Q 6.40625 1.796875 7.453125 2.75 
Q 8.5 3.703125 8.5 7.90625 
L 8.5 36.59375 
Q 8.5 40.59375 7.34375 41.84375 
Q 6.203125 43.09375 2.40625 43.5 
L 2.40625 45 
L 23.09375 45 
L 23.09375 43.5 
Q 19.09375 43.09375 18 42 
Q 16.90625 40.90625 16.90625 37.703125 
z
M 16.90625 22.40625 
L 16.90625 5.90625 
Q 16.90625 4 17.5 3.390625 
Q 18.09375 2.796875 20.296875 2.796875 
Q 26.703125 2.796875 30.046875 4.890625 
Q 33.40625 7 33.40625 12.703125 
Q 33.40625 18.296875 30.203125 20.34375 
Q 27 22.40625 21.40625 22.40625 
z
" id="STIXGeneral-Regular-1100"/>
      <path d="M 30.703125 23.703125 
L 30.703125 23.59375 
Q 36.40625 23 40.09375 20.25 
Q 43.796875 17.5 43.796875 12.59375 
Q 43.796875 9.5 42.1875 6.703125 
Q 40.59375 3.90625 37.90625 2.296875 
Q 33.796875 0 27.5 0 
L 2.40625 0 
L 2.40625 1.5 
Q 6.40625 1.59375 7.5 2.6875 
Q 8.59375 3.796875 8.59375 7.703125 
L 8.59375 37.40625 
Q 8.59375 41.296875 7.59375 42.25 
Q 6.59375 43.203125 2.40625 43.5 
L 2.40625 45 
L 23.5 45 
Q 41 45 41 33.59375 
Q 41 29.09375 38 26.59375 
Q 35 24.09375 30.703125 23.703125 
z
M 17 39.09375 
L 17 27.796875 
Q 17 25.796875 17.890625 25.25 
Q 18.796875 24.703125 22.09375 24.703125 
Q 27 24.703125 29.890625 26.890625 
Q 32.796875 29.09375 32.796875 33.296875 
Q 32.796875 37.796875 30.09375 40 
Q 27.40625 42.203125 20.5 42.203125 
Q 18.703125 42.203125 17.84375 41.59375 
Q 17 41 17 39.09375 
z
M 17 19.296875 
L 17 6.796875 
Q 17 4.5 17.890625 3.640625 
Q 18.796875 2.796875 21.203125 2.796875 
Q 27.5 2.796875 31.09375 4.890625 
Q 34.703125 7 34.703125 12.5 
Q 34.703125 15 33.890625 16.796875 
Q 33.09375 18.59375 31.890625 19.546875 
Q 30.703125 20.5 28.84375 21.046875 
Q 27 21.59375 25.453125 21.75 
Q 23.90625 21.90625 21.796875 21.90625 
Q 18.796875 21.90625 17.890625 21.34375 
Q 17 20.796875 17 19.296875 
z
" id="STIXGeneral-Regular-1074"/>
      <path d="M 40.203125 63.703125 
Q 40.203125 59.5 35.796875 57.046875 
Q 31.40625 54.59375 26.703125 54.59375 
Q 22 54.59375 17.59375 57.046875 
Q 13.203125 59.5 13.203125 63.703125 
Q 13.203125 66.796875 15.140625 68.59375 
Q 17.09375 70.40625 19.40625 70.40625 
Q 21.796875 70.40625 21.796875 67.90625 
Q 21.796875 66.09375 19.59375 65.5 
Q 17.40625 64.90625 17.40625 63.796875 
Q 17.40625 59.796875 26.703125 59.796875 
Q 36 59.796875 36 63.796875 
Q 36 64.90625 33.796875 65.5 
Q 31.59375 66.09375 31.59375 67.90625 
Q 31.59375 70.40625 34.296875 70.40625 
Q 36.703125 70.40625 38.453125 68.59375 
Q 40.203125 66.796875 40.203125 63.703125 
z
M 50.203125 45 
L 50.203125 43.5 
Q 46.203125 43.203125 45.09375 42.046875 
Q 44 40.90625 44 36.59375 
L 44 7.90625 
Q 44 4 45.09375 2.953125 
Q 46.203125 1.90625 50.09375 1.5 
L 50.09375 0 
L 29.40625 0 
L 29.40625 1.5 
Q 33.203125 1.796875 34.390625 2.9375 
Q 35.59375 4.09375 35.59375 7.40625 
L 35.59375 33 
L 16.90625 7.203125 
Q 16.90625 4.09375 18.09375 2.9375 
Q 19.296875 1.796875 23.09375 1.5 
L 23.09375 0 
L 2.296875 0 
L 2.296875 1.5 
Q 6.40625 1.796875 7.453125 2.75 
Q 8.5 3.703125 8.5 7.90625 
L 8.5 36.59375 
Q 8.5 40.59375 7.34375 41.84375 
Q 6.203125 43.09375 2.40625 43.5 
L 2.40625 45 
L 23.09375 45 
L 23.09375 43.5 
Q 19.09375 43.09375 18 42 
Q 16.90625 40.90625 16.90625 37.703125 
L 16.90625 12.09375 
L 35.59375 37.796875 
Q 35.59375 41 34.390625 42.09375 
Q 33.203125 43.203125 29.40625 43.5 
L 29.40625 45 
z
" id="STIXGeneral-Regular-1081"/>
      <path d="M 8.296875 -14.09375 
L 7.296875 -12.203125 
Q 15.59375 -6.59375 15.59375 -1.5 
Q 15.59375 -0.203125 14.203125 -0.203125 
Q 13.796875 -0.203125 12.84375 -0.390625 
Q 11.90625 -0.59375 11.296875 -0.59375 
Q 5.5 -0.59375 5.5 4.5 
Q 5.5 7.09375 7.140625 8.640625 
Q 8.796875 10.203125 11.5 10.203125 
Q 14.90625 10.203125 17.203125 7.75 
Q 19.5 5.296875 19.5 1.5 
Q 19.5 -3.09375 16.453125 -7.390625 
Q 13.40625 -11.703125 8.296875 -14.09375 
z
" id="STIXGeneral-Regular-44"/>
      <path d="M 68.59375 21.296875 
Q 68.59375 12.203125 63.59375 5.140625 
Q 58.59375 -1.90625 52.203125 -1.90625 
Q 47.09375 -1.90625 43.59375 2.09375 
Q 40.09375 6.09375 40.09375 11.90625 
Q 40.09375 19.90625 45.9375 26.453125 
Q 51.796875 33 59 33 
Q 63.59375 33 66.09375 29.953125 
Q 68.59375 26.90625 68.59375 21.296875 
z
M 66.296875 21.5 
Q 66.296875 25.40625 64.546875 27.796875 
Q 62.796875 30.203125 60 30.203125 
Q 57.09375 30.203125 55.09375 27.90625 
Q 51.796875 24.40625 49.546875 18.546875 
Q 47.296875 12.703125 47.296875 7.59375 
Q 47.296875 4.703125 48.890625 2.75 
Q 50.5 0.796875 52.90625 0.796875 
Q 58.09375 0.796875 62.1875 7.140625 
Q 66.296875 13.5 66.296875 21.5 
z
M 62.09375 70.59375 
L 19.09375 -1.796875 
L 14.40625 -1.796875 
L 53.796875 64 
Q 51 60.796875 48.34375 59.546875 
Q 45.703125 58.296875 41.703125 58.296875 
Q 38.203125 58.296875 34.09375 59.703125 
Q 34.5 57.40625 34.5 55.296875 
Q 34.5 50.09375 32.296875 44.890625 
Q 30.09375 39.703125 26.5 36.296875 
Q 22.703125 32.59375 17.90625 32.59375 
Q 12.90625 32.59375 9.5 36.546875 
Q 6.09375 40.5 6.09375 46.296875 
Q 6.09375 54.796875 11.890625 61.1875 
Q 17.703125 67.59375 25.40625 67.59375 
Q 28 67.59375 31.40625 64.796875 
Q 36.09375 60.90625 41 60.90625 
Q 45.59375 60.90625 48.1875 62.40625 
Q 50.796875 63.90625 57.703125 70.59375 
z
M 32.09375 56.90625 
Q 32.09375 59.09375 31.640625 59.890625 
Q 31.203125 60.703125 29.59375 61.5 
Q 27.296875 62.59375 25.203125 64.90625 
Q 22.09375 63.40625 20.796875 62.25 
Q 19.5 61.09375 18 58.59375 
Q 13.203125 51 13.203125 42.296875 
Q 13.203125 39.203125 14.75 37.25 
Q 16.296875 35.296875 18.90625 35.296875 
Q 24.203125 35.296875 28.140625 41.796875 
Q 32.09375 48.296875 32.09375 56.90625 
z
" id="STIXGeneral-Regular-37"/>
     </defs>
     <g transform="translate(32.003438 286.851531)rotate(-90)scale(0.18 -0.18)">
      <use xlink:href="#STIXGeneral-Regular-1044"/>
      <use x="66.499985" xlink:href="#STIXGeneral-Regular-1086"/>
      <use x="117.699982" xlink:href="#STIXGeneral-Regular-1083"/>
      <use x="167.599976" xlink:href="#STIXGeneral-Regular-1103"/>
      <use x="214.699966" xlink:href="#STIXGeneral-Regular-32"/>
      <use x="239.699951" xlink:href="#STIXGeneral-Regular-1087"/>
      <use x="292.199936" xlink:href="#STIXGeneral-Regular-1086"/>
      <use x="343.399933" xlink:href="#STIXGeneral-Regular-1083"/>
      <use x="393.299927" xlink:href="#STIXGeneral-Regular-1100"/>
      <use x="438.999924" xlink:href="#STIXGeneral-Regular-1079"/>
      <use x="477.999908" xlink:href="#STIXGeneral-Regular-1086"/>
      <use x="529.199905" xlink:href="#STIXGeneral-Regular-1074"/>
      <use x="576.599899" xlink:href="#STIXGeneral-Regular-1072"/>
      <use x="621.599884" xlink:href="#STIXGeneral-Regular-1090"/>
      <use x="664.999878" xlink:href="#STIXGeneral-Regular-1077"/>
      <use x="711.599869" xlink:href="#STIXGeneral-Regular-1083"/>
      <use x="761.499863" xlink:href="#STIXGeneral-Regular-1077"/>
      <use x="808.099854" xlink:href="#STIXGeneral-Regular-1081"/>
      <use x="860.599838" xlink:href="#STIXGeneral-Regular-44"/>
      <use x="885.599823" xlink:href="#STIXGeneral-Regular-32"/>
      <use x="910.599808" xlink:href="#STIXGeneral-Regular-37"/>
     </g>
    </g>
   </g>
   <g id="patch_7">
    <path clip-path="url(#pdd1dda3707)" d="M 156.363947 276.02 
L 189.345526 276.02 
L 189.345526 160.182176 
L 156.363947 160.182176 
z
" style="fill:url(#hd2a2b82695);opacity:0.7;stroke:#000000;stroke-linejoin:miter;stroke-width:0.5;"/>
   </g>
   <g id="patch_8">
    <path clip-path="url(#pdd1dda3707)" d="M 420.216579 276.02 
L 453.198158 276.02 
L 453.198158 204.866928 
L 420.216579 204.866928 
z
" style="fill:url(#hd2a2b82695);opacity:0.7;stroke:#000000;stroke-linejoin:miter;stroke-width:0.5;"/>
   </g>
   <g id="patch_9">
    <path clip-path="url(#pdd1dda3707)" d="M 189.345526 276.02 
L 222.327105 276.02 
L 222.327105 164.69736 
L 189.345526 164.69736 
z
" style="fill:url(#hc942dc60d2);opacity:0.7;stroke:#000000;stroke-linejoin:miter;stroke-width:0.5;"/>
   </g>
   <g id="patch_10">
    <path clip-path="url(#pdd1dda3707)" d="M 453.198158 276.02 
L 486.179737 276.02 
L 486.179737 208.759328 
L 453.198158 208.759328 
z
" style="fill:url(#hc942dc60d2);opacity:0.7;stroke:#000000;stroke-linejoin:miter;stroke-width:0.5;"/>
   </g>
   <g id="patch_11">
    <path clip-path="url(#pdd1dda3707)" d="M 156.363947 276.02 
L 189.345526 276.02 
L 189.345526 272.594688 
L 156.363947 272.594688 
z
" style="fill:url(#h217be8680f);opacity:0.7;stroke:#000000;stroke-linejoin:miter;stroke-width:0.5;"/>
   </g>
   <g id="patch_12">
    <path clip-path="url(#pdd1dda3707)" d="M 420.216579 276.02 
L 453.198158 276.02 
L 453.198158 274.930128 
L 420.216579 274.930128 
z
" style="fill:url(#h217be8680f);opacity:0.7;stroke:#000000;stroke-linejoin:miter;stroke-width:0.5;"/>
   </g>
   <g id="patch_13">
    <path clip-path="url(#pdd1dda3707)" d="M 189.345526 276.02 
L 222.327105 276.02 
L 222.327105 274.46304 
L 189.345526 274.46304 
z
" style="fill:url(#h8d0647ea8e);opacity:0.7;stroke:#000000;stroke-linejoin:miter;stroke-width:0.5;"/>
   </g>
   <g id="patch_14">
    <path clip-path="url(#pdd1dda3707)" d="M 453.198158 276.02 
L 486.179737 276.02 
L 486.179737 275.397216 
L 453.198158 275.397216 
z
" style="fill:url(#h8d0647ea8e);opacity:0.7;stroke:#000000;stroke-linejoin:miter;stroke-width:0.5;"/>
   </g>
   <g id="patch_15">
    <path clip-path="url(#pdd1dda3707)" d="M 288.290263 276.02 
L 321.271842 276.02 
L 321.271842 179.332784 
L 288.290263 179.332784 
z
" style="fill:url(#hd2a2b82695);opacity:0.7;stroke:#000000;stroke-linejoin:miter;stroke-width:0.5;"/>
   </g>
   <g id="patch_16">
    <path clip-path="url(#pdd1dda3707)" d="M 552.142895 276.02 
L 585.124474 276.02 
L 585.124474 209.537808 
L 552.142895 209.537808 
z
" style="fill:url(#hd2a2b82695);opacity:0.7;stroke:#000000;stroke-linejoin:miter;stroke-width:0.5;"/>
   </g>
   <g id="patch_17">
    <path clip-path="url(#pdd1dda3707)" d="M 321.271842 276.02 
L 354.253421 276.02 
L 354.253421 183.069488 
L 321.271842 183.069488 
z
" style="fill:url(#hc942dc60d2);opacity:0.7;stroke:#000000;stroke-linejoin:miter;stroke-width:0.5;"/>
   </g>
   <g id="patch_18">
    <path clip-path="url(#pdd1dda3707)" d="M 585.124474 276.02 
L 618.106053 276.02 
L 618.106053 212.028944 
L 585.124474 212.028944 
z
" style="fill:url(#hc942dc60d2);opacity:0.7;stroke:#000000;stroke-linejoin:miter;stroke-width:0.5;"/>
   </g>
   <g id="patch_19">
    <path clip-path="url(#pdd1dda3707)" d="M 288.290263 276.02 
L 321.271842 276.02 
L 321.271842 274.774432 
L 288.290263 274.774432 
z
" style="fill:url(#h217be8680f);opacity:0.7;stroke:#000000;stroke-linejoin:miter;stroke-width:0.5;"/>
   </g>
   <g id="patch_20">
    <path clip-path="url(#pdd1dda3707)" d="M 552.142895 276.02 
L 585.124474 276.02 
L 585.124474 274.151648 
L 552.142895 274.151648 
z
" style="fill:url(#h217be8680f);opacity:0.7;stroke:#000000;stroke-linejoin:miter;stroke-width:0.5;"/>
   </g>
   <g id="patch_21">
    <path clip-path="url(#pdd1dda3707)" d="M 321.271842 276.02 
L 354.253421 276.02 
L 354.253421 275.24152 
L 321.271842 275.24152 
z
" style="fill:url(#h8d0647ea8e);opacity:0.7;stroke:#000000;stroke-linejoin:miter;stroke-width:0.5;"/>
   </g>
   <g id="patch_22">
    <path clip-path="url(#pdd1dda3707)" d="M 585.124474 276.02 
L 618.106053 276.02 
L 618.106053 274.774432 
L 585.124474 274.774432 
z
" style="fill:url(#h8d0647ea8e);opacity:0.7;stroke:#000000;stroke-linejoin:miter;stroke-width:0.5;"/>
   </g>
   <g id="patch_23">
    <path d="M 73.91 276.02 
L 73.91 120.324 
" style="fill:none;stroke:#000000;stroke-linecap:square;stroke-linejoin:miter;stroke-width:0.8;"/>
   </g>
   <g id="patch_24">
    <path d="M 700.56 276.02 
L 700.56 120.324 
" style="fill:none;stroke:#000000;stroke-linecap:square;stroke-linejoin:miter;stroke-width:0.8;"/>
   </g>
   <g id="patch_25">
    <path d="M 73.91 276.02 
L 700.56 276.02 
" style="fill:none;stroke:#000000;stroke-linecap:square;stroke-linejoin:miter;stroke-width:0.8;"/>
   </g>
   <g id="patch_26">
    <path d="M 73.91 120.324 
L 700.56 120.324 
" style="fill:none;stroke:#000000;stroke-linecap:square;stroke-linejoin:miter;stroke-width:0.8;"/>
   </g>
   <g id="PatchCollection_1">
    <path clip-path="url(#pdd1dda3707)" d="M 156.693763 252.821296 
L 189.015711 252.821296 
L 189.015711 241.144096 
L 156.693763 241.144096 
z
" style="fill:none;"/>
    <path clip-path="url(#pdd1dda3707)" d="M 189.675342 255.156736 
L 221.997289 255.156736 
L 221.997289 243.479536 
L 189.675342 243.479536 
z
" style="fill:none;"/>
    <path clip-path="url(#pdd1dda3707)" d="M 288.620079 262.00736 
L 320.942026 262.00736 
L 320.942026 250.33016 
L 288.620079 250.33016 
z
" style="fill:none;"/>
    <path clip-path="url(#pdd1dda3707)" d="M 321.601658 262.474448 
L 353.923605 262.474448 
L 353.923605 250.797248 
L 321.601658 250.797248 
z
" style="fill:none;"/>
    <path clip-path="url(#pdd1dda3707)" d="M 420.546395 264.498496 
L 452.868342 264.498496 
L 452.868342 252.821296 
L 420.546395 252.821296 
z
" style="fill:none;"/>
    <path clip-path="url(#pdd1dda3707)" d="M 453.527974 268.546592 
L 485.849921 268.546592 
L 485.849921 256.869392 
L 453.527974 256.869392 
z
" style="fill:none;"/>
    <path clip-path="url(#pdd1dda3707)" d="M 552.802526 270.726336 
L 584.794658 270.726336 
L 584.794658 259.049136 
L 552.802526 259.049136 
z
" style="fill:none;"/>
    <path clip-path="url(#pdd1dda3707)" d="M 585.784105 272.90608 
L 617.776237 272.90608 
L 617.776237 261.22888 
L 585.784105 261.22888 
z
" style="fill:none;"/>
   </g>
   <g id="text_14">
    <!-- 74,4 -->
    <defs>
     <path d="M 44.90625 64.59375 
L 23.703125 -0.796875 
L 17.203125 -0.796875 
L 37 58.796875 
L 15.5 58.796875 
Q 11.203125 58.796875 9.09375 57.296875 
Q 7 55.796875 3.796875 50.59375 
L 2 51.5 
L 8 66.203125 
L 44.90625 66.203125 
z
" id="STIXGeneral-Regular-55"/>
    </defs>
    <g transform="translate(159.662105 157.068256)scale(0.18 -0.18)">
     <use xlink:href="#STIXGeneral-Regular-55"/>
     <use x="49.999985" xlink:href="#STIXGeneral-Regular-52"/>
     <use x="99.999969" xlink:href="#STIXGeneral-Regular-44"/>
     <use x="124.999954" xlink:href="#STIXGeneral-Regular-52"/>
    </g>
   </g>
   <g id="text_15">
    <!-- 71,5 -->
    <g transform="translate(192.643684 161.58344)scale(0.18 -0.18)">
     <use xlink:href="#STIXGeneral-Regular-55"/>
     <use x="49.999985" xlink:href="#STIXGeneral-Regular-49"/>
     <use x="99.999969" xlink:href="#STIXGeneral-Regular-44"/>
     <use x="124.999954" xlink:href="#STIXGeneral-Regular-53"/>
    </g>
   </g>
   <g id="text_16">
    <!-- 62,1 -->
    <g transform="translate(291.588421 176.218864)scale(0.18 -0.18)">
     <use xlink:href="#STIXGeneral-Regular-54"/>
     <use x="49.999985" xlink:href="#STIXGeneral-Regular-50"/>
     <use x="99.999969" xlink:href="#STIXGeneral-Regular-44"/>
     <use x="124.999954" xlink:href="#STIXGeneral-Regular-49"/>
    </g>
   </g>
   <g id="text_17">
    <!-- 59,7 -->
    <defs>
     <path d="M 5.90625 -2.203125 
L 5.59375 -0.203125 
Q 17.09375 1.796875 25.046875 9.5 
Q 33 17.203125 36 29.40625 
Q 30.203125 23.703125 21 23.703125 
Q 12.90625 23.703125 7.953125 29.296875 
Q 3 34.90625 3 44 
Q 3 54.09375 8.953125 60.84375 
Q 14.90625 67.59375 23.796875 67.59375 
Q 33.296875 67.59375 39.5 60 
Q 45.90625 52 45.90625 39.40625 
Q 45.90625 30.59375 42.84375 22.84375 
Q 39.796875 15.09375 33.90625 9.703125 
Q 27.703125 4.09375 21.796875 1.640625 
Q 15.90625 -0.796875 5.90625 -2.203125 
z
M 36.203125 35.5 
L 36.203125 39.40625 
Q 36.203125 64.796875 23 64.796875 
Q 18.296875 64.796875 15.703125 61.40625 
Q 14.203125 59.40625 13.203125 55.40625 
Q 12.203125 51.40625 12.203125 47.40625 
Q 12.203125 38.5 15.546875 33.25 
Q 18.90625 28 24.5 28 
Q 28.5 28 32.34375 29.953125 
Q 36.203125 31.90625 36.203125 35.5 
z
" id="STIXGeneral-Regular-57"/>
    </defs>
    <g transform="translate(324.57 179.955568)scale(0.18 -0.18)">
     <use xlink:href="#STIXGeneral-Regular-53"/>
     <use x="49.999985" xlink:href="#STIXGeneral-Regular-57"/>
     <use x="99.999969" xlink:href="#STIXGeneral-Regular-44"/>
     <use x="124.999954" xlink:href="#STIXGeneral-Regular-55"/>
    </g>
   </g>
   <g id="text_18">
    <!-- 45,7 -->
    <g transform="translate(423.514737 201.753008)scale(0.18 -0.18)">
     <use xlink:href="#STIXGeneral-Regular-52"/>
     <use x="49.999985" xlink:href="#STIXGeneral-Regular-53"/>
     <use x="99.999969" xlink:href="#STIXGeneral-Regular-44"/>
     <use x="124.999954" xlink:href="#STIXGeneral-Regular-55"/>
    </g>
   </g>
   <g id="text_19">
    <!-- 43,2 -->
    <defs>
     <path d="M 6.09375 51 
L 4.5 51.40625 
Q 6.796875 58.90625 11.6875 63.25 
Q 16.59375 67.59375 24.09375 67.59375 
Q 31.09375 67.59375 35.390625 63.796875 
Q 39.703125 60 39.703125 53.90625 
Q 39.703125 45.703125 30.40625 40.09375 
Q 35.90625 37.703125 38.703125 34.796875 
Q 43.09375 29.90625 43.09375 21.90625 
Q 43.09375 13.90625 38.5 7.90625 
Q 35.09375 3.296875 28.75 0.9375 
Q 22.40625 -1.40625 15.296875 -1.40625 
Q 4.09375 -1.40625 4.09375 4.296875 
Q 4.09375 5.90625 5.296875 6.90625 
Q 6.5 7.90625 8.203125 7.90625 
Q 10.703125 7.90625 14.296875 5.296875 
Q 18.703125 2.203125 22.90625 2.203125 
Q 28.40625 2.203125 32.15625 6.640625 
Q 35.90625 11.09375 35.90625 17.5 
Q 35.90625 29 25.5 32 
Q 22.40625 33 15.296875 33 
L 15.296875 34.40625 
Q 20.90625 36.296875 23.703125 38 
Q 31.796875 42.59375 31.796875 51.40625 
Q 31.796875 56.40625 28.9375 59 
Q 26.09375 61.59375 21 61.59375 
Q 12 61.59375 6.09375 51 
z
" id="STIXGeneral-Regular-51"/>
    </defs>
    <g transform="translate(456.496316 205.645408)scale(0.18 -0.18)">
     <use xlink:href="#STIXGeneral-Regular-52"/>
     <use x="49.999985" xlink:href="#STIXGeneral-Regular-51"/>
     <use x="99.999969" xlink:href="#STIXGeneral-Regular-44"/>
     <use x="124.999954" xlink:href="#STIXGeneral-Regular-50"/>
    </g>
   </g>
   <g id="text_20">
    <!-- 42,7 -->
    <g transform="translate(555.441053 206.423888)scale(0.18 -0.18)">
     <use xlink:href="#STIXGeneral-Regular-52"/>
     <use x="49.999985" xlink:href="#STIXGeneral-Regular-50"/>
     <use x="99.999969" xlink:href="#STIXGeneral-Regular-44"/>
     <use x="124.999954" xlink:href="#STIXGeneral-Regular-55"/>
    </g>
   </g>
   <g id="text_21">
    <!-- 41,1 -->
    <g transform="translate(588.422632 208.915024)scale(0.18 -0.18)">
     <use xlink:href="#STIXGeneral-Regular-52"/>
     <use x="49.999985" xlink:href="#STIXGeneral-Regular-49"/>
     <use x="99.999969" xlink:href="#STIXGeneral-Regular-44"/>
     <use x="124.999954" xlink:href="#STIXGeneral-Regular-49"/>
    </g>
   </g>
   <g id="text_22">
    <!-- 2,2 -->
    <g transform="translate(159.662105 269.480768)scale(0.18 -0.18)">
     <use xlink:href="#STIXGeneral-Regular-50"/>
     <use x="49.999985" xlink:href="#STIXGeneral-Regular-44"/>
     <use x="74.999969" xlink:href="#STIXGeneral-Regular-50"/>
    </g>
   </g>
   <g id="text_23">
    <!-- 1,0 -->
    <g transform="translate(192.643684 271.34912)scale(0.18 -0.18)">
     <use xlink:href="#STIXGeneral-Regular-49"/>
     <use x="49.999985" xlink:href="#STIXGeneral-Regular-44"/>
     <use x="74.999969" xlink:href="#STIXGeneral-Regular-48"/>
    </g>
   </g>
   <g id="text_24">
    <!-- 0,8 -->
    <g transform="translate(291.588421 271.660512)scale(0.18 -0.18)">
     <use xlink:href="#STIXGeneral-Regular-48"/>
     <use x="49.999985" xlink:href="#STIXGeneral-Regular-44"/>
     <use x="74.999969" xlink:href="#STIXGeneral-Regular-56"/>
    </g>
   </g>
   <g id="text_25">
    <!-- 0,5 -->
    <g transform="translate(324.57 272.1276)scale(0.18 -0.18)">
     <use xlink:href="#STIXGeneral-Regular-48"/>
     <use x="49.999985" xlink:href="#STIXGeneral-Regular-44"/>
     <use x="74.999969" xlink:href="#STIXGeneral-Regular-53"/>
    </g>
   </g>
   <g id="text_26">
    <!-- 0,7 -->
    <g transform="translate(423.514737 271.816208)scale(0.18 -0.18)">
     <use xlink:href="#STIXGeneral-Regular-48"/>
     <use x="49.999985" xlink:href="#STIXGeneral-Regular-44"/>
     <use x="74.999969" xlink:href="#STIXGeneral-Regular-55"/>
    </g>
   </g>
   <g id="text_27">
    <!-- 0,4 -->
    <g transform="translate(456.496316 272.283296)scale(0.18 -0.18)">
     <use xlink:href="#STIXGeneral-Regular-48"/>
     <use x="49.999985" xlink:href="#STIXGeneral-Regular-44"/>
     <use x="74.999969" xlink:href="#STIXGeneral-Regular-52"/>
    </g>
   </g>
   <g id="text_28">
    <!-- 1,2 -->
    <g transform="translate(555.441053 271.037728)scale(0.18 -0.18)">
     <use xlink:href="#STIXGeneral-Regular-49"/>
     <use x="49.999985" xlink:href="#STIXGeneral-Regular-44"/>
     <use x="74.999969" xlink:href="#STIXGeneral-Regular-50"/>
    </g>
   </g>
   <g id="text_29">
    <!-- 0,8 -->
    <g transform="translate(588.422632 271.660512)scale(0.18 -0.18)">
     <use xlink:href="#STIXGeneral-Regular-48"/>
     <use x="49.999985" xlink:href="#STIXGeneral-Regular-44"/>
     <use x="74.999969" xlink:href="#STIXGeneral-Regular-56"/>
    </g>
   </g>
   <g id="legend_1">
    <g id="patch_27">
     <path d="M 77.51 117.21008 
L 696.96 117.21008 
Q 700.56 117.21008 700.56 113.61008 
L 700.56 26.882705 
Q 700.56 23.282705 696.96 23.282705 
L 77.51 23.282705 
Q 73.91 23.282705 73.91 26.882705 
L 73.91 113.61008 
Q 73.91 117.21008 77.51 117.21008 
z
" style="fill:#ffffff;opacity:0.8;stroke:#cccccc;stroke-linejoin:miter;"/>
    </g>
    <g id="patch_28">
     <path d="M 81.11 54.257049 
L 117.11 54.257049 
L 117.11 41.657049 
L 81.11 41.657049 
z
" style="fill:url(#h02594ca368);stroke:#000000;stroke-linejoin:miter;stroke-width:0.2;"/>
    </g>
    <g id="text_30">
     <!-- Пользователи в зоне действия -->
     <defs>
      <path d="M 70.5 0 
L 42.59375 0 
L 42.59375 1.90625 
Q 48.40625 2.296875 49.90625 4.140625 
Q 51.40625 6 51.40625 12.40625 
L 51.40625 58.40625 
Q 51.40625 60.703125 50.59375 61.546875 
Q 49.796875 62.40625 47.703125 62.40625 
L 24.796875 62.40625 
Q 22.59375 62.40625 21.796875 61.546875 
Q 21 60.703125 21 58.296875 
L 21 11.296875 
Q 21 5.796875 22.640625 4 
Q 24.296875 2.203125 29.796875 1.90625 
L 29.796875 0 
L 1.90625 0 
L 1.90625 1.90625 
Q 7.796875 2.296875 9.296875 4.046875 
Q 10.796875 5.796875 10.796875 12.203125 
L 10.796875 54.796875 
Q 10.796875 60.59375 9.25 62.1875 
Q 7.703125 63.796875 1.90625 64.296875 
L 1.90625 66.203125 
L 70.5 66.203125 
L 70.5 64.296875 
Q 64.90625 63.796875 63.25 62.140625 
Q 61.59375 60.5 61.59375 54.796875 
L 61.59375 11.09375 
Q 61.59375 5.796875 63.25 4.046875 
Q 64.90625 2.296875 70.5 1.90625 
z
" id="STIXGeneral-Regular-1055"/>
      <path d="M 50.203125 45 
L 50.203125 43.5 
Q 46.203125 43.203125 45.09375 42.046875 
Q 44 40.90625 44 36.59375 
L 44 7.90625 
Q 44 4 45.09375 2.953125 
Q 46.203125 1.90625 50.09375 1.5 
L 50.09375 0 
L 29.40625 0 
L 29.40625 1.5 
Q 33.203125 1.796875 34.390625 2.9375 
Q 35.59375 4.09375 35.59375 7.40625 
L 35.59375 33 
L 16.90625 7.203125 
Q 16.90625 4.09375 18.09375 2.9375 
Q 19.296875 1.796875 23.09375 1.5 
L 23.09375 0 
L 2.296875 0 
L 2.296875 1.5 
Q 6.40625 1.796875 7.453125 2.75 
Q 8.5 3.703125 8.5 7.90625 
L 8.5 36.59375 
Q 8.5 40.59375 7.34375 41.84375 
Q 6.203125 43.09375 2.40625 43.5 
L 2.40625 45 
L 23.09375 45 
L 23.09375 43.5 
Q 19.09375 43.09375 18 42 
Q 16.90625 40.90625 16.90625 37.703125 
L 16.90625 12.09375 
L 35.59375 37.796875 
Q 35.59375 41 34.390625 42.09375 
Q 33.203125 43.203125 29.40625 43.5 
L 29.40625 45 
z
" id="STIXGeneral-Regular-1080"/>
      <path d="M 50.203125 45 
L 50.203125 43.5 
Q 46.203125 43.203125 45.09375 42.046875 
Q 44 40.90625 44 36.59375 
L 44 7.90625 
Q 44 4 45.09375 2.953125 
Q 46.203125 1.90625 50.09375 1.5 
L 50.09375 0 
L 29.40625 0 
L 29.40625 1.5 
Q 33.203125 1.796875 34.390625 2.9375 
Q 35.59375 4.09375 35.59375 7.40625 
L 35.59375 21.5 
L 16.90625 21.5 
L 16.90625 7.203125 
Q 16.90625 4.09375 18.09375 2.9375 
Q 19.296875 1.796875 23.09375 1.5 
L 23.09375 0 
L 2.296875 0 
L 2.296875 1.5 
Q 6.40625 1.796875 7.453125 2.75 
Q 8.5 3.703125 8.5 7.90625 
L 8.5 36.59375 
Q 8.5 40.59375 7.34375 41.84375 
Q 6.203125 43.09375 2.40625 43.5 
L 2.40625 45 
L 23.09375 45 
L 23.09375 43.5 
Q 19.09375 43.09375 18 42 
Q 16.90625 40.90625 16.90625 37.703125 
L 16.90625 24.796875 
L 35.59375 24.796875 
L 35.59375 37.796875 
Q 35.59375 41 34.390625 42.09375 
Q 33.203125 43.203125 29.40625 43.5 
L 29.40625 45 
z
" id="STIXGeneral-Regular-1085"/>
      <path d="M 43.90625 45 
L 43.90625 43.5 
Q 39.90625 43.203125 38.796875 42.046875 
Q 37.703125 40.90625 37.703125 36.59375 
L 37.703125 8.203125 
Q 37.703125 3.703125 38.703125 2.75 
Q 39.703125 1.796875 43.796875 1.5 
L 43.796875 -13.703125 
L 42 -13.703125 
Q 39.59375 -5.09375 37.5 -2.546875 
Q 35.40625 0 32.203125 0 
L 13.59375 0 
Q 10.5 0 8 -2.640625 
Q 5.5 -5.296875 3.203125 -13.703125 
L 1.40625 -13.703125 
L 1.40625 1.5 
Q 7.296875 1.5 9.296875 5.75 
Q 11.296875 10 11.296875 19.90625 
L 11.296875 36.59375 
Q 11.296875 40.40625 9.75 41.75 
Q 8.203125 43.09375 4.203125 43.5 
L 4.203125 45 
z
M 29.296875 8.09375 
L 29.296875 37.90625 
Q 29.296875 40.703125 28.59375 41.453125 
Q 27.90625 42.203125 25.296875 42.203125 
L 18.296875 42.203125 
Q 16.296875 42.203125 15.4375 41.34375 
Q 14.59375 40.5 14.59375 38 
L 14.59375 17.90625 
Q 14.59375 8.40625 11.59375 2.796875 
L 25.09375 2.796875 
Q 29.296875 2.796875 29.296875 8.09375 
z
" id="STIXGeneral-Regular-1076"/>
     </defs>
     <g transform="translate(131.51 42.974424)scale(0.18 -0.18)">
      <use xlink:href="#STIXGeneral-Regular-1055"/>
      <use x="72.399994" xlink:href="#STIXGeneral-Regular-1086"/>
      <use x="123.599991" xlink:href="#STIXGeneral-Regular-1083"/>
      <use x="173.499985" xlink:href="#STIXGeneral-Regular-1100"/>
      <use x="219.199982" xlink:href="#STIXGeneral-Regular-1079"/>
      <use x="258.199966" xlink:href="#STIXGeneral-Regular-1086"/>
      <use x="309.399963" xlink:href="#STIXGeneral-Regular-1074"/>
      <use x="356.799957" xlink:href="#STIXGeneral-Regular-1072"/>
      <use x="401.799942" xlink:href="#STIXGeneral-Regular-1090"/>
      <use x="445.199936" xlink:href="#STIXGeneral-Regular-1077"/>
      <use x="491.799927" xlink:href="#STIXGeneral-Regular-1083"/>
      <use x="541.699921" xlink:href="#STIXGeneral-Regular-1080"/>
      <use x="594.199905" xlink:href="#STIXGeneral-Regular-32"/>
      <use x="619.19989" xlink:href="#STIXGeneral-Regular-1074"/>
      <use x="666.599884" xlink:href="#STIXGeneral-Regular-32"/>
      <use x="691.599869" xlink:href="#STIXGeneral-Regular-1079"/>
      <use x="730.599854" xlink:href="#STIXGeneral-Regular-1086"/>
      <use x="781.79985" xlink:href="#STIXGeneral-Regular-1085"/>
      <use x="834.299835" xlink:href="#STIXGeneral-Regular-1077"/>
      <use x="880.899826" xlink:href="#STIXGeneral-Regular-32"/>
      <use x="905.899811" xlink:href="#STIXGeneral-Regular-1076"/>
      <use x="952.099808" xlink:href="#STIXGeneral-Regular-1077"/>
      <use x="998.699799" xlink:href="#STIXGeneral-Regular-1081"/>
      <use x="1051.199783" xlink:href="#STIXGeneral-Regular-1089"/>
      <use x="1096.799774" xlink:href="#STIXGeneral-Regular-1090"/>
      <use x="1140.199768" xlink:href="#STIXGeneral-Regular-1074"/>
      <use x="1187.599762" xlink:href="#STIXGeneral-Regular-1080"/>
      <use x="1240.099747" xlink:href="#STIXGeneral-Regular-1103"/>
     </g>
     <!-- одного БПЛА -->
     <defs>
      <path d="M 38.703125 30.90625 
L 37 30.90625 
Q 36 36.90625 32.25 39.453125 
Q 28.5 42 19.5 42 
Q 17.59375 42 16.9375 41.296875 
Q 16.296875 40.59375 16.296875 38.796875 
L 16.296875 7.203125 
Q 16.296875 4.09375 17.5 2.9375 
Q 18.703125 1.796875 22.5 1.5 
L 22.5 0 
L 1.703125 0 
L 1.703125 1.5 
Q 5.796875 1.796875 6.84375 2.75 
Q 7.90625 3.703125 7.90625 7.90625 
L 7.90625 38.796875 
Q 7.90625 41.90625 6.84375 42.59375 
Q 5.796875 43.296875 1.703125 43.5 
L 1.703125 45 
L 38.203125 45 
z
" id="STIXGeneral-Regular-1075"/>
      <path d="M 66.40625 0 
L 38.5 0 
L 38.5 1.90625 
Q 44.296875 2.296875 45.796875 4.140625 
Q 47.296875 6 47.296875 12.5 
L 47.296875 58.5 
Q 47.296875 60.59375 46.546875 61.5 
Q 45.796875 62.40625 43.796875 62.40625 
L 29.703125 62.40625 
Q 27.59375 62.40625 26.890625 61.5 
Q 26.203125 60.59375 26.203125 58.5 
L 26.203125 26.09375 
Q 26.203125 23.203125 26.140625 21.34375 
Q 26.09375 19.5 25.796875 16.34375 
Q 25.5 13.203125 24.953125 11.046875 
Q 24.40625 8.90625 23.296875 6.34375 
Q 22.203125 3.796875 20.640625 2.25 
Q 19.09375 0.703125 16.640625 -0.34375 
Q 14.203125 -1.40625 11.09375 -1.40625 
Q 6.203125 -1.40625 3.546875 0.1875 
Q 0.90625 1.796875 0.90625 5.90625 
Q 0.90625 8.59375 2.703125 10 
Q 4.5 11.40625 6.5 11.40625 
Q 8.40625 11.40625 9.65625 10.15625 
Q 10.90625 8.90625 11.453125 7.453125 
Q 12 6 12.75 4.75 
Q 13.5 3.5 14.5 3.5 
Q 16.09375 3.5 17.34375 4.59375 
Q 18.59375 5.703125 19.34375 7.84375 
Q 20.09375 10 20.546875 12.296875 
Q 21 14.59375 21.25 17.84375 
Q 21.5 21.09375 21.546875 23.5 
Q 21.59375 25.90625 21.59375 29 
L 21.59375 55 
Q 21.59375 60.5 19.640625 62.34375 
Q 17.703125 64.203125 13 64.296875 
L 13 66.203125 
L 66.40625 66.203125 
L 66.40625 64.296875 
Q 60.703125 63.796875 59.09375 62.140625 
Q 57.5 60.5 57.5 54.796875 
L 57.5 11.09375 
Q 57.5 5.796875 59.140625 4.046875 
Q 60.796875 2.296875 66.40625 1.90625 
z
" id="STIXGeneral-Regular-1051"/>
      <path d="M 70.09375 0 
L 44.59375 0 
L 44.59375 1.90625 
Q 48.59375 1.90625 50.09375 2.796875 
Q 51.5 3.5 51.5 5.203125 
Q 51.5 7.796875 49.59375 12.203125 
L 45.5 21.59375 
L 19.296875 21.59375 
L 14.703125 10.203125 
Q 13.796875 7.90625 13.796875 6 
Q 13.796875 3.703125 15.4375 2.796875 
Q 17.09375 1.90625 20.796875 1.90625 
L 20.796875 0 
L 0.90625 0 
L 0.90625 1.90625 
Q 5.09375 2.296875 7 4.9375 
Q 8.90625 7.59375 13.5 18.59375 
L 34.09375 67.40625 
L 36.09375 67.40625 
L 60.703125 11.09375 
Q 62.90625 5.90625 64.65625 4.09375 
Q 66.40625 2.296875 70.09375 1.90625 
z
M 44.09375 25.59375 
L 32.5 53.203125 
L 21 25.59375 
z
" id="STIXGeneral-Regular-1040"/>
     </defs>
     <g transform="translate(131.51 61.633111)scale(0.18 -0.18)">
      <use xlink:href="#STIXGeneral-Regular-1086"/>
      <use x="51.199997" xlink:href="#STIXGeneral-Regular-1076"/>
      <use x="97.399994" xlink:href="#STIXGeneral-Regular-1085"/>
      <use x="149.899979" xlink:href="#STIXGeneral-Regular-1086"/>
      <use x="201.099976" xlink:href="#STIXGeneral-Regular-1075"/>
      <use x="240.499969" xlink:href="#STIXGeneral-Regular-1086"/>
      <use x="291.699966" xlink:href="#STIXGeneral-Regular-32"/>
      <use x="316.699951" xlink:href="#STIXGeneral-Regular-1041"/>
      <use x="377.799942" xlink:href="#STIXGeneral-Regular-1055"/>
      <use x="450.199936" xlink:href="#STIXGeneral-Regular-1051"/>
      <use x="518.499924" xlink:href="#STIXGeneral-Regular-1040"/>
     </g>
    </g>
    <g id="patch_29">
     <path d="M 81.11 98.115736 
L 117.11 98.115736 
L 117.11 85.515736 
L 81.11 85.515736 
z
" style="fill:url(#h005271f547);stroke:#000000;stroke-linejoin:miter;stroke-width:0.2;"/>
    </g>
    <g id="text_31">
     <!-- Пользователи в зоне действия -->
     <g transform="translate(131.51 86.833111)scale(0.18 -0.18)">
      <use xlink:href="#STIXGeneral-Regular-1055"/>
      <use x="72.399994" xlink:href="#STIXGeneral-Regular-1086"/>
      <use x="123.599991" xlink:href="#STIXGeneral-Regular-1083"/>
      <use x="173.499985" xlink:href="#STIXGeneral-Regular-1100"/>
      <use x="219.199982" xlink:href="#STIXGeneral-Regular-1079"/>
      <use x="258.199966" xlink:href="#STIXGeneral-Regular-1086"/>
      <use x="309.399963" xlink:href="#STIXGeneral-Regular-1074"/>
      <use x="356.799957" xlink:href="#STIXGeneral-Regular-1072"/>
      <use x="401.799942" xlink:href="#STIXGeneral-Regular-1090"/>
      <use x="445.199936" xlink:href="#STIXGeneral-Regular-1077"/>
      <use x="491.799927" xlink:href="#STIXGeneral-Regular-1083"/>
      <use x="541.699921" xlink:href="#STIXGeneral-Regular-1080"/>
      <use x="594.199905" xlink:href="#STIXGeneral-Regular-32"/>
      <use x="619.19989" xlink:href="#STIXGeneral-Regular-1074"/>
      <use x="666.599884" xlink:href="#STIXGeneral-Regular-32"/>
      <use x="691.599869" xlink:href="#STIXGeneral-Regular-1079"/>
      <use x="730.599854" xlink:href="#STIXGeneral-Regular-1086"/>
      <use x="781.79985" xlink:href="#STIXGeneral-Regular-1085"/>
      <use x="834.299835" xlink:href="#STIXGeneral-Regular-1077"/>
      <use x="880.899826" xlink:href="#STIXGeneral-Regular-32"/>
      <use x="905.899811" xlink:href="#STIXGeneral-Regular-1076"/>
      <use x="952.099808" xlink:href="#STIXGeneral-Regular-1077"/>
      <use x="998.699799" xlink:href="#STIXGeneral-Regular-1081"/>
      <use x="1051.199783" xlink:href="#STIXGeneral-Regular-1089"/>
      <use x="1096.799774" xlink:href="#STIXGeneral-Regular-1090"/>
      <use x="1140.199768" xlink:href="#STIXGeneral-Regular-1074"/>
      <use x="1187.599762" xlink:href="#STIXGeneral-Regular-1080"/>
      <use x="1240.099747" xlink:href="#STIXGeneral-Regular-1103"/>
     </g>
     <!-- более одного БПЛА -->
     <defs>
      <path d="M 8.40625 34.703125 
L 8.59375 34.59375 
Q 14.09375 46 26.203125 46 
Q 35.5 46 41.640625 39.640625 
Q 47.796875 33.296875 47.796875 23.09375 
Q 47.796875 12.59375 41.546875 5.796875 
Q 35.296875 -1 25.296875 -1 
Q 14.90625 -1 9.40625 6.703125 
Q 3.90625 14.40625 3.90625 25.296875 
Q 3.90625 29.796875 4.5 34.4375 
Q 5.09375 39.09375 6.84375 44.4375 
Q 8.59375 49.796875 11.34375 53.890625 
Q 14.09375 58 18.890625 60.703125 
Q 23.703125 63.40625 29.90625 63.40625 
L 36.59375 63.40625 
Q 40.09375 63.40625 41.796875 64.5 
Q 43.5 65.59375 44.09375 68.5 
L 46.09375 68.5 
Q 45.40625 59.203125 38.796875 56.703125 
Q 36.59375 55.90625 31.6875 55.796875 
Q 26.796875 55.703125 25.796875 55.59375 
Q 18.40625 54.703125 13.65625 48.640625 
Q 8.90625 42.59375 8.40625 34.703125 
z
M 38.796875 20.40625 
Q 38.796875 31.796875 33.796875 38.203125 
Q 29.796875 43.203125 24.296875 43.203125 
Q 19.09375 43.203125 16 38.953125 
Q 12.90625 34.703125 12.90625 27.296875 
Q 12.90625 14.5 18.203125 6.796875 
Q 21.59375 1.796875 27 1.796875 
Q 32.5 1.796875 35.640625 6.75 
Q 38.796875 11.703125 38.796875 20.40625 
z
" id="STIXGeneral-Regular-1073"/>
     </defs>
     <g transform="translate(131.51 105.491799)scale(0.18 -0.18)">
      <use xlink:href="#STIXGeneral-Regular-1073"/>
      <use x="50.699997" xlink:href="#STIXGeneral-Regular-1086"/>
      <use x="101.899994" xlink:href="#STIXGeneral-Regular-1083"/>
      <use x="151.799988" xlink:href="#STIXGeneral-Regular-1077"/>
      <use x="198.399979" xlink:href="#STIXGeneral-Regular-1077"/>
      <use x="244.999969" xlink:href="#STIXGeneral-Regular-32"/>
      <use x="269.999954" xlink:href="#STIXGeneral-Regular-1086"/>
      <use x="321.199951" xlink:href="#STIXGeneral-Regular-1076"/>
      <use x="367.399948" xlink:href="#STIXGeneral-Regular-1085"/>
      <use x="419.899933" xlink:href="#STIXGeneral-Regular-1086"/>
      <use x="471.09993" xlink:href="#STIXGeneral-Regular-1075"/>
      <use x="510.499924" xlink:href="#STIXGeneral-Regular-1086"/>
      <use x="561.699921" xlink:href="#STIXGeneral-Regular-32"/>
      <use x="586.699905" xlink:href="#STIXGeneral-Regular-1041"/>
      <use x="647.799896" xlink:href="#STIXGeneral-Regular-1055"/>
      <use x="720.19989" xlink:href="#STIXGeneral-Regular-1051"/>
      <use x="788.499878" xlink:href="#STIXGeneral-Regular-1040"/>
     </g>
    </g>
    <g id="patch_30">
     <path d="M 409.277812 54.257049 
L 445.277812 54.257049 
L 445.277812 41.657049 
L 409.277812 41.657049 
z
" style="fill:#dbdbdb;stroke:#000000;stroke-linejoin:miter;stroke-width:0.2;"/>
    </g>
    <g id="text_32">
     <!-- Число пользователей в группе -->
     <defs>
      <path d="M 63.90625 0 
L 36 0 
L 36 1.90625 
Q 41.59375 2.40625 43.1875 4.046875 
Q 44.796875 5.703125 44.796875 11.40625 
L 44.796875 31.5 
Q 36.09375 26.90625 26.59375 26.90625 
Q 17.90625 26.90625 13.546875 29.953125 
Q 9.203125 33 9.203125 42.296875 
L 9.203125 54.703125 
Q 9.203125 60.59375 7.640625 62.1875 
Q 6.09375 63.796875 0.296875 64.296875 
L 0.296875 66.203125 
L 27.796875 66.203125 
L 27.796875 64.296875 
Q 22.296875 63.796875 20.84375 62.1875 
Q 19.40625 60.59375 19.40625 54.703125 
L 19.40625 43.203125 
Q 19.40625 36.59375 21.953125 33.9375 
Q 24.5 31.296875 31 31.296875 
Q 32.796875 31.296875 34.546875 31.546875 
Q 36.296875 31.796875 38.046875 32.296875 
Q 39.796875 32.796875 40.75 33.140625 
Q 41.703125 33.5 43.203125 34.09375 
L 44.796875 34.703125 
L 44.796875 56.703125 
Q 44.796875 61.296875 43.59375 62.59375 
Q 42.40625 63.90625 37.296875 64.296875 
L 37.296875 66.203125 
L 63.90625 66.203125 
L 63.90625 64.296875 
Q 58.203125 63.796875 56.59375 62.046875 
Q 55 60.296875 55 53.796875 
L 55 11.40625 
Q 55 5.703125 56.59375 4.046875 
Q 58.203125 2.40625 63.90625 1.90625 
z
" id="STIXGeneral-Regular-1063"/>
      <path d="M 15.203125 45.796875 
L 15.203125 38.09375 
Q 21.5 46 29.59375 46 
Q 36.90625 46 41.59375 40 
Q 46.296875 34 46.296875 24.703125 
Q 46.296875 13.703125 40.546875 6.34375 
Q 34.796875 -1 25.90625 -1 
Q 19.90625 -1 15.203125 3.296875 
L 15.203125 -12.59375 
Q 15.203125 -17.296875 16.796875 -18.6875 
Q 18.40625 -20.09375 24 -20.203125 
L 24 -21.703125 
L -0.203125 -21.703125 
L -0.203125 -20.203125 
Q 4.203125 -19.796875 5.5 -18.5 
Q 6.796875 -17.203125 6.796875 -13.296875 
L 6.796875 33.703125 
Q 6.796875 37.203125 6 38.296875 
Q 5.203125 39.40625 2.703125 39.40625 
Q 1.09375 39.40625 0.203125 39.296875 
L 0.203125 40.90625 
Q 7.203125 43 14.59375 46 
z
M 15.203125 33.40625 
L 15.203125 8.796875 
Q 15.203125 6.5 18.640625 4.25 
Q 22.09375 2 25.59375 2 
Q 31 2 34.34375 7.203125 
Q 37.703125 12.40625 37.703125 20.703125 
Q 37.703125 29.5 34.34375 34.75 
Q 31 40 25.40625 40 
Q 21.90625 40 18.546875 37.796875 
Q 15.203125 35.59375 15.203125 33.40625 
z
" id="STIXGeneral-Regular-1088"/>
     </defs>
     <g transform="translate(459.677812 43.15583)scale(0.18 -0.18)">
      <use xlink:href="#STIXGeneral-Regular-1063"/>
      <use x="65.699997" xlink:href="#STIXGeneral-Regular-1080"/>
      <use x="118.199982" xlink:href="#STIXGeneral-Regular-1089"/>
      <use x="163.799973" xlink:href="#STIXGeneral-Regular-1083"/>
      <use x="213.699966" xlink:href="#STIXGeneral-Regular-1086"/>
      <use x="264.899963" xlink:href="#STIXGeneral-Regular-32"/>
      <use x="289.899948" xlink:href="#STIXGeneral-Regular-1087"/>
      <use x="342.399933" xlink:href="#STIXGeneral-Regular-1086"/>
      <use x="393.59993" xlink:href="#STIXGeneral-Regular-1083"/>
      <use x="443.499924" xlink:href="#STIXGeneral-Regular-1100"/>
      <use x="489.199921" xlink:href="#STIXGeneral-Regular-1079"/>
      <use x="528.199905" xlink:href="#STIXGeneral-Regular-1086"/>
      <use x="579.399902" xlink:href="#STIXGeneral-Regular-1074"/>
      <use x="626.799896" xlink:href="#STIXGeneral-Regular-1072"/>
      <use x="671.799881" xlink:href="#STIXGeneral-Regular-1090"/>
      <use x="715.199875" xlink:href="#STIXGeneral-Regular-1077"/>
      <use x="761.799866" xlink:href="#STIXGeneral-Regular-1083"/>
      <use x="811.69986" xlink:href="#STIXGeneral-Regular-1077"/>
      <use x="858.29985" xlink:href="#STIXGeneral-Regular-1081"/>
      <use x="910.799835" xlink:href="#STIXGeneral-Regular-32"/>
      <use x="935.79982" xlink:href="#STIXGeneral-Regular-1074"/>
      <use x="983.199814" xlink:href="#STIXGeneral-Regular-32"/>
      <use x="1008.199799" xlink:href="#STIXGeneral-Regular-1075"/>
      <use x="1047.599792" xlink:href="#STIXGeneral-Regular-1088"/>
      <use x="1097.499786" xlink:href="#STIXGeneral-Regular-1091"/>
      <use x="1146.599777" xlink:href="#STIXGeneral-Regular-1087"/>
      <use x="1199.099762" xlink:href="#STIXGeneral-Regular-1087"/>
      <use x="1251.599747" xlink:href="#STIXGeneral-Regular-1077"/>
     </g>
     <!-- одинаковое -->
     <defs>
      <path d="M 49.5 0 
L 36.296875 0 
L 25.40625 16.40625 
Q 22.796875 20.296875 21.75 21.1875 
Q 20.703125 22.09375 18.203125 22.5 
L 18.203125 6.703125 
Q 18.203125 4 19.296875 2.84375 
Q 20.40625 1.703125 23.40625 1.59375 
L 25.703125 1.5 
L 25.703125 0 
L 2.296875 0 
L 2.296875 1.5 
L 5.09375 1.703125 
Q 7.90625 1.90625 8.84375 3 
Q 9.796875 4.09375 9.796875 6.703125 
L 9.796875 37.703125 
Q 9.796875 41.203125 8.640625 42.203125 
Q 7.5 43.203125 3.703125 43.59375 
L 3.703125 45 
L 24.40625 45 
L 24.40625 43.59375 
Q 20.796875 43.203125 19.5 41.953125 
Q 18.203125 40.703125 18.203125 37.90625 
L 18.203125 25.296875 
Q 22 25.296875 24.796875 27 
Q 25.796875 27.59375 26.890625 29.140625 
Q 28 30.703125 28.703125 32.046875 
Q 29.40625 33.40625 30.59375 35.796875 
Q 31.796875 38.203125 32.296875 39.203125 
Q 35.703125 45.59375 41.40625 45.59375 
Q 44.203125 45.59375 45.84375 44.1875 
Q 47.5 42.796875 47.5 40.796875 
Q 47.5 38.90625 46.203125 37.65625 
Q 44.90625 36.40625 42.90625 36.40625 
Q 41.703125 36.40625 39.890625 37.15625 
Q 38.09375 37.90625 37.5 37.90625 
Q 36 37.90625 34.84375 36.40625 
Q 33.703125 34.90625 32.890625 32.90625 
Q 32.09375 30.90625 30.296875 28.34375 
Q 28.5 25.796875 26.09375 24.203125 
L 26.09375 24 
Q 30.09375 22.203125 32.84375 19.640625 
Q 35.59375 17.09375 38.40625 11.59375 
Q 41.203125 6.203125 44.203125 3.40625 
Q 45.90625 1.796875 49.5 1.5 
z
" id="STIXGeneral-Regular-1082"/>
     </defs>
     <g transform="translate(459.677812 61.831392)scale(0.18 -0.18)">
      <use xlink:href="#STIXGeneral-Regular-1086"/>
      <use x="51.199997" xlink:href="#STIXGeneral-Regular-1076"/>
      <use x="97.399994" xlink:href="#STIXGeneral-Regular-1080"/>
      <use x="149.899979" xlink:href="#STIXGeneral-Regular-1085"/>
      <use x="202.399963" xlink:href="#STIXGeneral-Regular-1072"/>
      <use x="247.399948" xlink:href="#STIXGeneral-Regular-1082"/>
      <use x="297.699936" xlink:href="#STIXGeneral-Regular-1086"/>
      <use x="348.899933" xlink:href="#STIXGeneral-Regular-1074"/>
      <use x="396.299927" xlink:href="#STIXGeneral-Regular-1086"/>
      <use x="447.499924" xlink:href="#STIXGeneral-Regular-1077"/>
     </g>
    </g>
    <g id="patch_31">
     <path d="M 409.277812 98.520736 
L 445.277812 98.520736 
L 445.277812 85.920736 
L 409.277812 85.920736 
z
" style="fill:#ffffff;stroke:#000000;stroke-linejoin:miter;stroke-width:0.2;"/>
    </g>
    <g id="text_33">
     <!-- Число пользователей в группе -->
     <g transform="translate(459.677812 87.41108)scale(0.18 -0.18)">
      <use xlink:href="#STIXGeneral-Regular-1063"/>
      <use x="65.699997" xlink:href="#STIXGeneral-Regular-1080"/>
      <use x="118.199982" xlink:href="#STIXGeneral-Regular-1089"/>
      <use x="163.799973" xlink:href="#STIXGeneral-Regular-1083"/>
      <use x="213.699966" xlink:href="#STIXGeneral-Regular-1086"/>
      <use x="264.899963" xlink:href="#STIXGeneral-Regular-32"/>
      <use x="289.899948" xlink:href="#STIXGeneral-Regular-1087"/>
      <use x="342.399933" xlink:href="#STIXGeneral-Regular-1086"/>
      <use x="393.59993" xlink:href="#STIXGeneral-Regular-1083"/>
      <use x="443.499924" xlink:href="#STIXGeneral-Regular-1100"/>
      <use x="489.199921" xlink:href="#STIXGeneral-Regular-1079"/>
      <use x="528.199905" xlink:href="#STIXGeneral-Regular-1086"/>
      <use x="579.399902" xlink:href="#STIXGeneral-Regular-1074"/>
      <use x="626.799896" xlink:href="#STIXGeneral-Regular-1072"/>
      <use x="671.799881" xlink:href="#STIXGeneral-Regular-1090"/>
      <use x="715.199875" xlink:href="#STIXGeneral-Regular-1077"/>
      <use x="761.799866" xlink:href="#STIXGeneral-Regular-1083"/>
      <use x="811.69986" xlink:href="#STIXGeneral-Regular-1077"/>
      <use x="858.29985" xlink:href="#STIXGeneral-Regular-1081"/>
      <use x="910.799835" xlink:href="#STIXGeneral-Regular-32"/>
      <use x="935.79982" xlink:href="#STIXGeneral-Regular-1074"/>
      <use x="983.199814" xlink:href="#STIXGeneral-Regular-32"/>
      <use x="1008.199799" xlink:href="#STIXGeneral-Regular-1075"/>
      <use x="1047.599792" xlink:href="#STIXGeneral-Regular-1088"/>
      <use x="1097.499786" xlink:href="#STIXGeneral-Regular-1091"/>
      <use x="1146.599777" xlink:href="#STIXGeneral-Regular-1087"/>
      <use x="1199.099762" xlink:href="#STIXGeneral-Regular-1087"/>
      <use x="1251.599747" xlink:href="#STIXGeneral-Regular-1077"/>
     </g>
     <!-- распределено по Ципфу -->
     <defs>
      <path d="M 69.59375 -15.296875 
L 67.203125 -15.296875 
Q 66.796875 -12.296875 66.203125 -10.09375 
Q 63.296875 0 53.59375 0 
L 1.90625 0 
L 1.90625 1.90625 
Q 7.5 2.40625 9.140625 4.046875 
Q 10.796875 5.703125 10.796875 11.40625 
L 10.796875 55.09375 
Q 10.796875 60.40625 9.140625 62.15625 
Q 7.5 63.90625 1.90625 64.296875 
L 1.90625 66.203125 
L 29.796875 66.203125 
L 29.796875 64.296875 
Q 24 63.90625 22.5 62.046875 
Q 21 60.203125 21 53.796875 
L 21 6.796875 
Q 21 4.90625 21.640625 4.34375 
Q 22.296875 3.796875 24.5 3.796875 
L 47 3.796875 
Q 49.203125 3.796875 49.84375 4.34375 
Q 50.5 4.90625 50.5 6.90625 
L 50.5 54.90625 
Q 50.5 60.40625 48.890625 62.203125 
Q 47.296875 64 41.796875 64.296875 
L 41.796875 66.203125 
L 69.59375 66.203125 
L 69.59375 64.296875 
Q 63.703125 63.90625 62.203125 62.15625 
Q 60.703125 60.40625 60.703125 54 
L 60.703125 11.40625 
Q 60.703125 5.59375 62.25 4 
Q 63.796875 2.40625 69.59375 1.90625 
z
" id="STIXGeneral-Regular-1062"/>
      <path d="M 37.90625 66 
L 37.90625 40.703125 
Q 39.09375 43 41.5 44.5 
Q 43.90625 46 47 46 
Q 54.703125 46 59.09375 39.703125 
Q 63.5 33.40625 63.5 22.703125 
Q 63.5 9.296875 57.5 3 
Q 53.59375 -1 47.203125 -1 
Q 44.203125 -1 41.640625 0.5 
Q 39.09375 2 37.90625 4.296875 
L 37.90625 -12.59375 
Q 37.90625 -17.296875 39.5 -18.6875 
Q 41.09375 -20.09375 46.703125 -20.203125 
L 46.703125 -21.703125 
L 22.90625 -21.703125 
L 22.90625 -20.203125 
Q 27.296875 -19.796875 28.59375 -18.5 
Q 29.90625 -17.203125 29.90625 -13.296875 
L 29.90625 4.296875 
Q 28.703125 2 26.140625 0.5 
Q 23.59375 -1 20.59375 -1 
Q 14.203125 -1 10.296875 3 
Q 4.296875 9.296875 4.296875 22.703125 
Q 4.296875 33.40625 8.6875 39.703125 
Q 13.09375 46 20.796875 46 
Q 23.90625 46 26.296875 44.5 
Q 28.703125 43 29.90625 40.703125 
L 29.90625 53.90625 
Q 29.90625 57.40625 29.09375 58.5 
Q 28.296875 59.59375 25.796875 59.59375 
Q 24.203125 59.59375 23.296875 59.5 
L 23.296875 61.09375 
Q 29.09375 62.90625 37.296875 66.203125 
z
M 37.90625 35.703125 
L 37.90625 9.5 
Q 37.90625 7.09375 40.5 4.546875 
Q 43.09375 2 46.703125 2 
Q 50.203125 2 52.59375 7.59375 
Q 54.90625 13.09375 54.90625 23.296875 
Q 54.90625 31.296875 52.703125 37.140625 
Q 50.5 43 46.703125 43 
Q 43.203125 43 40.546875 40.5 
Q 37.90625 38 37.90625 35.703125 
z
M 29.90625 9.5 
L 29.90625 35.5 
Q 29.90625 37.90625 27.25 40.453125 
Q 24.59375 43 21.09375 43 
Q 17.296875 43 15.09375 37.140625 
Q 12.90625 31.296875 12.90625 23.296875 
Q 12.90625 13.09375 15.203125 7.59375 
Q 17.59375 2 21.09375 2 
Q 24.703125 2 27.296875 4.546875 
Q 29.90625 7.09375 29.90625 9.5 
z
" id="STIXGeneral-Regular-1092"/>
     </defs>
     <g transform="translate(459.677812 106.086642)scale(0.18 -0.18)">
      <use xlink:href="#STIXGeneral-Regular-1088"/>
      <use x="49.899994" xlink:href="#STIXGeneral-Regular-1072"/>
      <use x="94.899979" xlink:href="#STIXGeneral-Regular-1089"/>
      <use x="140.499969" xlink:href="#STIXGeneral-Regular-1087"/>
      <use x="192.999954" xlink:href="#STIXGeneral-Regular-1088"/>
      <use x="242.899948" xlink:href="#STIXGeneral-Regular-1077"/>
      <use x="289.499939" xlink:href="#STIXGeneral-Regular-1076"/>
      <use x="335.699936" xlink:href="#STIXGeneral-Regular-1077"/>
      <use x="382.299927" xlink:href="#STIXGeneral-Regular-1083"/>
      <use x="432.199921" xlink:href="#STIXGeneral-Regular-1077"/>
      <use x="478.799911" xlink:href="#STIXGeneral-Regular-1085"/>
      <use x="531.299896" xlink:href="#STIXGeneral-Regular-1086"/>
      <use x="582.499893" xlink:href="#STIXGeneral-Regular-32"/>
      <use x="607.499878" xlink:href="#STIXGeneral-Regular-1087"/>
      <use x="659.999863" xlink:href="#STIXGeneral-Regular-1086"/>
      <use x="711.19986" xlink:href="#STIXGeneral-Regular-32"/>
      <use x="736.199844" xlink:href="#STIXGeneral-Regular-1062"/>
      <use x="807.699829" xlink:href="#STIXGeneral-Regular-1080"/>
      <use x="860.199814" xlink:href="#STIXGeneral-Regular-1087"/>
      <use x="912.699799" xlink:href="#STIXGeneral-Regular-1092"/>
      <use x="980.499786" xlink:href="#STIXGeneral-Regular-1091"/>
     </g>
    </g>
   </g>
  </g>
 </g>
 <defs>
  <clipPath id="pdd1dda3707">
   <rect height="155.696" width="626.65" x="73.91" y="120.324"/>
  </clipPath>
 </defs>
 <defs>
  <pattern height="72" id="h02594ca368" patternUnits="userSpaceOnUse" width="72" x="0" y="0">
   <rect fill="#ffffff" height="73" width="73" x="0" y="0"/>
   <path d="M -36 36 
L 36 -36 
M -30 42 
L 42 -30 
M -24 48 
L 48 -24 
M -18 54 
L 54 -18 
M -12 60 
L 60 -12 
M -6 66 
L 66 -6 
M 0 72 
L 72 0 
M 6 78 
L 78 6 
M 12 84 
L 84 12 
M 18 90 
L 90 18 
M 24 96 
L 96 24 
M 30 102 
L 102 30 
M 36 108 
L 108 36 
" style="fill:#000000;stroke:#000000;stroke-linecap:butt;stroke-linejoin:miter;stroke-width:0.3;"/>
  </pattern>
  <pattern height="72" id="h005271f547" patternUnits="userSpaceOnUse" width="72" x="0" y="0">
   <rect fill="#ffffff" height="73" width="73" x="0" y="0"/>
   <path d="M -36 36 
L 36 -36 
M -30 42 
L 42 -30 
M -24 48 
L 48 -24 
M -18 54 
L 54 -18 
M -12 60 
L 60 -12 
M -6 66 
L 66 -6 
M 0 72 
L 72 0 
M 6 78 
L 78 6 
M 12 84 
L 84 12 
M 18 90 
L 90 18 
M 24 96 
L 96 24 
M 30 102 
L 102 30 
M 36 108 
L 108 36 
M -36 36 
L 36 108 
M -30 30 
L 42 102 
M -24 24 
L 48 96 
M -18 18 
L 54 90 
M -12 12 
L 60 84 
M -6 6 
L 66 78 
M 0 0 
L 72 72 
M 6 -6 
L 78 66 
M 12 -12 
L 84 60 
M 18 -18 
L 90 54 
M 24 -24 
L 96 48 
M 30 -30 
L 102 42 
M 36 -36 
L 108 36 
" style="fill:#000000;stroke:#000000;stroke-linecap:butt;stroke-linejoin:miter;stroke-width:0.3;"/>
  </pattern>
  <pattern height="72" id="hd2a2b82695" patternUnits="userSpaceOnUse" width="72" x="0" y="0">
   <rect fill="#dbdbdb" height="73" width="73" x="0" y="0"/>
   <path d="M -36 36 
L 36 -36 
M -30 42 
L 42 -30 
M -24 48 
L 48 -24 
M -18 54 
L 54 -18 
M -12 60 
L 60 -12 
M -6 66 
L 66 -6 
M 0 72 
L 72 0 
M 6 78 
L 78 6 
M 12 84 
L 84 12 
M 18 90 
L 90 18 
M 24 96 
L 96 24 
M 30 102 
L 102 30 
M 36 108 
L 108 36 
" style="fill:#000000;stroke:#000000;stroke-linecap:butt;stroke-linejoin:miter;stroke-width:0.3;"/>
  </pattern>
  <pattern height="72" id="hc942dc60d2" patternUnits="userSpaceOnUse" width="72" x="0" y="0">
   <rect fill="#ffffff" height="73" width="73" x="0" y="0"/>
   <path d="M -36 36 
L 36 -36 
M -30 42 
L 42 -30 
M -24 48 
L 48 -24 
M -18 54 
L 54 -18 
M -12 60 
L 60 -12 
M -6 66 
L 66 -6 
M 0 72 
L 72 0 
M 6 78 
L 78 6 
M 12 84 
L 84 12 
M 18 90 
L 90 18 
M 24 96 
L 96 24 
M 30 102 
L 102 30 
M 36 108 
L 108 36 
" style="fill:#000000;stroke:#000000;stroke-linecap:butt;stroke-linejoin:miter;stroke-width:0.3;"/>
  </pattern>
  <pattern height="72" id="h217be8680f" patternUnits="userSpaceOnUse" width="72" x="0" y="0">
   <rect fill="#dbdbdb" height="73" width="73" x="0" y="0"/>
   <path d="M -36 36 
L 36 -36 
M -30 42 
L 42 -30 
M -24 48 
L 48 -24 
M -18 54 
L 54 -18 
M -12 60 
L 60 -12 
M -6 66 
L 66 -6 
M 0 72 
L 72 0 
M 6 78 
L 78 6 
M 12 84 
L 84 12 
M 18 90 
L 90 18 
M 24 96 
L 96 24 
M 30 102 
L 102 30 
M 36 108 
L 108 36 
M -36 36 
L 36 108 
M -30 30 
L 42 102 
M -24 24 
L 48 96 
M -18 18 
L 54 90 
M -12 12 
L 60 84 
M -6 6 
L 66 78 
M 0 0 
L 72 72 
M 6 -6 
L 78 66 
M 12 -12 
L 84 60 
M 18 -18 
L 90 54 
M 24 -24 
L 96 48 
M 30 -30 
L 102 42 
M 36 -36 
L 108 36 
" style="fill:#000000;stroke:#000000;stroke-linecap:butt;stroke-linejoin:miter;stroke-width:0.3;"/>
  </pattern>
  <pattern height="72" id="h8d0647ea8e" patternUnits="userSpaceOnUse" width="72" x="0" y="0">
   <rect fill="#eeeeee" height="73" width="73" x="0" y="0"/>
   <path d="M -36 36 
L 36 -36 
M -30 42 
L 42 -30 
M -24 48 
L 48 -24 
M -18 54 
L 54 -18 
M -12 60 
L 60 -12 
M -6 66 
L 66 -6 
M 0 72 
L 72 0 
M 6 78 
L 78 6 
M 12 84 
L 84 12 
M 18 90 
L 90 18 
M 24 96 
L 96 24 
M 30 102 
L 102 30 
M 36 108 
L 108 36 
M -36 36 
L 36 108 
M -30 30 
L 42 102 
M -24 24 
L 48 96 
M -18 18 
L 54 90 
M -12 12 
L 60 84 
M -6 6 
L 66 78 
M 0 0 
L 72 72 
M 6 -6 
L 78 66 
M 12 -12 
L 84 60 
M 18 -18 
L 90 54 
M 24 -24 
L 96 48 
M 30 -30 
L 102 42 
M 36 -36 
L 108 36 
" style="fill:#000000;stroke:#000000;stroke-linecap:butt;stroke-linejoin:miter;stroke-width:0.3;"/>
  </pattern>
 </defs>
</svg>
